%TF.GenerationSoftware,KiCad,Pcbnew,(5.1.9-0-10_14)*%
%TF.CreationDate,2021-03-07T13:53:49+01:00*%
%TF.ProjectId,ADC Piggy Board,41444320-5069-4676-9779-20426f617264,rev?*%
%TF.SameCoordinates,Original*%
%TF.FileFunction,Legend,Bot*%
%TF.FilePolarity,Positive*%
%FSLAX46Y46*%
G04 Gerber Fmt 4.6, Leading zero omitted, Abs format (unit mm)*
G04 Created by KiCad (PCBNEW (5.1.9-0-10_14)) date 2021-03-07 13:53:49*
%MOMM*%
%LPD*%
G01*
G04 APERTURE LIST*
%ADD10C,0.150000*%
%ADD11C,0.120000*%
G04 APERTURE END LIST*
D10*
X156142857Y-98802380D02*
X156142857Y-97802380D01*
X155904761Y-97802380D01*
X155761904Y-97850000D01*
X155666666Y-97945238D01*
X155619047Y-98040476D01*
X155571428Y-98230952D01*
X155571428Y-98373809D01*
X155619047Y-98564285D01*
X155666666Y-98659523D01*
X155761904Y-98754761D01*
X155904761Y-98802380D01*
X156142857Y-98802380D01*
X155190476Y-98516666D02*
X154714285Y-98516666D01*
X155285714Y-98802380D02*
X154952380Y-97802380D01*
X154619047Y-98802380D01*
X153714285Y-98707142D02*
X153761904Y-98754761D01*
X153904761Y-98802380D01*
X154000000Y-98802380D01*
X154142857Y-98754761D01*
X154238095Y-98659523D01*
X154285714Y-98564285D01*
X154333333Y-98373809D01*
X154333333Y-98230952D01*
X154285714Y-98040476D01*
X154238095Y-97945238D01*
X154142857Y-97850000D01*
X154000000Y-97802380D01*
X153904761Y-97802380D01*
X153761904Y-97850000D01*
X153714285Y-97897619D01*
X152523809Y-98802380D02*
X152523809Y-97802380D01*
X152142857Y-97802380D01*
X152047619Y-97850000D01*
X152000000Y-97897619D01*
X151952380Y-97992857D01*
X151952380Y-98135714D01*
X152000000Y-98230952D01*
X152047619Y-98278571D01*
X152142857Y-98326190D01*
X152523809Y-98326190D01*
X151523809Y-98802380D02*
X151523809Y-98135714D01*
X151523809Y-97802380D02*
X151571428Y-97850000D01*
X151523809Y-97897619D01*
X151476190Y-97850000D01*
X151523809Y-97802380D01*
X151523809Y-97897619D01*
X150619047Y-98135714D02*
X150619047Y-98945238D01*
X150666666Y-99040476D01*
X150714285Y-99088095D01*
X150809523Y-99135714D01*
X150952380Y-99135714D01*
X151047619Y-99088095D01*
X150619047Y-98754761D02*
X150714285Y-98802380D01*
X150904761Y-98802380D01*
X151000000Y-98754761D01*
X151047619Y-98707142D01*
X151095238Y-98611904D01*
X151095238Y-98326190D01*
X151047619Y-98230952D01*
X151000000Y-98183333D01*
X150904761Y-98135714D01*
X150714285Y-98135714D01*
X150619047Y-98183333D01*
X149714285Y-98135714D02*
X149714285Y-98945238D01*
X149761904Y-99040476D01*
X149809523Y-99088095D01*
X149904761Y-99135714D01*
X150047619Y-99135714D01*
X150142857Y-99088095D01*
X149714285Y-98754761D02*
X149809523Y-98802380D01*
X150000000Y-98802380D01*
X150095238Y-98754761D01*
X150142857Y-98707142D01*
X150190476Y-98611904D01*
X150190476Y-98326190D01*
X150142857Y-98230952D01*
X150095238Y-98183333D01*
X150000000Y-98135714D01*
X149809523Y-98135714D01*
X149714285Y-98183333D01*
X149333333Y-98135714D02*
X149095238Y-98802380D01*
X148857142Y-98135714D02*
X149095238Y-98802380D01*
X149190476Y-99040476D01*
X149238095Y-99088095D01*
X149333333Y-99135714D01*
X147380952Y-98278571D02*
X147238095Y-98326190D01*
X147190476Y-98373809D01*
X147142857Y-98469047D01*
X147142857Y-98611904D01*
X147190476Y-98707142D01*
X147238095Y-98754761D01*
X147333333Y-98802380D01*
X147714285Y-98802380D01*
X147714285Y-97802380D01*
X147380952Y-97802380D01*
X147285714Y-97850000D01*
X147238095Y-97897619D01*
X147190476Y-97992857D01*
X147190476Y-98088095D01*
X147238095Y-98183333D01*
X147285714Y-98230952D01*
X147380952Y-98278571D01*
X147714285Y-98278571D01*
X146571428Y-98802380D02*
X146666666Y-98754761D01*
X146714285Y-98707142D01*
X146761904Y-98611904D01*
X146761904Y-98326190D01*
X146714285Y-98230952D01*
X146666666Y-98183333D01*
X146571428Y-98135714D01*
X146428571Y-98135714D01*
X146333333Y-98183333D01*
X146285714Y-98230952D01*
X146238095Y-98326190D01*
X146238095Y-98611904D01*
X146285714Y-98707142D01*
X146333333Y-98754761D01*
X146428571Y-98802380D01*
X146571428Y-98802380D01*
X145380952Y-98802380D02*
X145380952Y-98278571D01*
X145428571Y-98183333D01*
X145523809Y-98135714D01*
X145714285Y-98135714D01*
X145809523Y-98183333D01*
X145380952Y-98754761D02*
X145476190Y-98802380D01*
X145714285Y-98802380D01*
X145809523Y-98754761D01*
X145857142Y-98659523D01*
X145857142Y-98564285D01*
X145809523Y-98469047D01*
X145714285Y-98421428D01*
X145476190Y-98421428D01*
X145380952Y-98373809D01*
X144904761Y-98802380D02*
X144904761Y-98135714D01*
X144904761Y-98326190D02*
X144857142Y-98230952D01*
X144809523Y-98183333D01*
X144714285Y-98135714D01*
X144619047Y-98135714D01*
X143857142Y-98802380D02*
X143857142Y-97802380D01*
X143857142Y-98754761D02*
X143952380Y-98802380D01*
X144142857Y-98802380D01*
X144238095Y-98754761D01*
X144285714Y-98707142D01*
X144333333Y-98611904D01*
X144333333Y-98326190D01*
X144285714Y-98230952D01*
X144238095Y-98183333D01*
X144142857Y-98135714D01*
X143952380Y-98135714D01*
X143857142Y-98183333D01*
X157261904Y-100452380D02*
X157595238Y-99976190D01*
X157833333Y-100452380D02*
X157833333Y-99452380D01*
X157452380Y-99452380D01*
X157357142Y-99500000D01*
X157309523Y-99547619D01*
X157261904Y-99642857D01*
X157261904Y-99785714D01*
X157309523Y-99880952D01*
X157357142Y-99928571D01*
X157452380Y-99976190D01*
X157833333Y-99976190D01*
X156452380Y-100404761D02*
X156547619Y-100452380D01*
X156738095Y-100452380D01*
X156833333Y-100404761D01*
X156880952Y-100309523D01*
X156880952Y-99928571D01*
X156833333Y-99833333D01*
X156738095Y-99785714D01*
X156547619Y-99785714D01*
X156452380Y-99833333D01*
X156404761Y-99928571D01*
X156404761Y-100023809D01*
X156880952Y-100119047D01*
X156071428Y-99785714D02*
X155833333Y-100452380D01*
X155595238Y-99785714D01*
X155214285Y-100357142D02*
X155166666Y-100404761D01*
X155214285Y-100452380D01*
X155261904Y-100404761D01*
X155214285Y-100357142D01*
X155214285Y-100452380D01*
X153452380Y-100452380D02*
X154023809Y-100452380D01*
X153738095Y-100452380D02*
X153738095Y-99452380D01*
X153833333Y-99595238D01*
X153928571Y-99690476D01*
X154023809Y-99738095D01*
X152976190Y-100404761D02*
X152976190Y-100452380D01*
X153023809Y-100547619D01*
X153071428Y-100595238D01*
X151833333Y-99547619D02*
X151785714Y-99500000D01*
X151690476Y-99452380D01*
X151452380Y-99452380D01*
X151357142Y-99500000D01*
X151309523Y-99547619D01*
X151261904Y-99642857D01*
X151261904Y-99738095D01*
X151309523Y-99880952D01*
X151880952Y-100452380D01*
X151261904Y-100452380D01*
X150642857Y-99452380D02*
X150547619Y-99452380D01*
X150452380Y-99500000D01*
X150404761Y-99547619D01*
X150357142Y-99642857D01*
X150309523Y-99833333D01*
X150309523Y-100071428D01*
X150357142Y-100261904D01*
X150404761Y-100357142D01*
X150452380Y-100404761D01*
X150547619Y-100452380D01*
X150642857Y-100452380D01*
X150738095Y-100404761D01*
X150785714Y-100357142D01*
X150833333Y-100261904D01*
X150880952Y-100071428D01*
X150880952Y-99833333D01*
X150833333Y-99642857D01*
X150785714Y-99547619D01*
X150738095Y-99500000D01*
X150642857Y-99452380D01*
X149928571Y-99547619D02*
X149880952Y-99500000D01*
X149785714Y-99452380D01*
X149547619Y-99452380D01*
X149452380Y-99500000D01*
X149404761Y-99547619D01*
X149357142Y-99642857D01*
X149357142Y-99738095D01*
X149404761Y-99880952D01*
X149976190Y-100452380D01*
X149357142Y-100452380D01*
X148404761Y-100452380D02*
X148976190Y-100452380D01*
X148690476Y-100452380D02*
X148690476Y-99452380D01*
X148785714Y-99595238D01*
X148880952Y-99690476D01*
X148976190Y-99738095D01*
X147976190Y-100071428D02*
X147214285Y-100071428D01*
X146547619Y-99452380D02*
X146452380Y-99452380D01*
X146357142Y-99500000D01*
X146309523Y-99547619D01*
X146261904Y-99642857D01*
X146214285Y-99833333D01*
X146214285Y-100071428D01*
X146261904Y-100261904D01*
X146309523Y-100357142D01*
X146357142Y-100404761D01*
X146452380Y-100452380D01*
X146547619Y-100452380D01*
X146642857Y-100404761D01*
X146690476Y-100357142D01*
X146738095Y-100261904D01*
X146785714Y-100071428D01*
X146785714Y-99833333D01*
X146738095Y-99642857D01*
X146690476Y-99547619D01*
X146642857Y-99500000D01*
X146547619Y-99452380D01*
X145880952Y-99452380D02*
X145261904Y-99452380D01*
X145595238Y-99833333D01*
X145452380Y-99833333D01*
X145357142Y-99880952D01*
X145309523Y-99928571D01*
X145261904Y-100023809D01*
X145261904Y-100261904D01*
X145309523Y-100357142D01*
X145357142Y-100404761D01*
X145452380Y-100452380D01*
X145738095Y-100452380D01*
X145833333Y-100404761D01*
X145880952Y-100357142D01*
X144833333Y-100071428D02*
X144071428Y-100071428D01*
X143404761Y-99452380D02*
X143309523Y-99452380D01*
X143214285Y-99500000D01*
X143166666Y-99547619D01*
X143119047Y-99642857D01*
X143071428Y-99833333D01*
X143071428Y-100071428D01*
X143119047Y-100261904D01*
X143166666Y-100357142D01*
X143214285Y-100404761D01*
X143309523Y-100452380D01*
X143404761Y-100452380D01*
X143500000Y-100404761D01*
X143547619Y-100357142D01*
X143595238Y-100261904D01*
X143642857Y-100071428D01*
X143642857Y-99833333D01*
X143595238Y-99642857D01*
X143547619Y-99547619D01*
X143500000Y-99500000D01*
X143404761Y-99452380D01*
X142214285Y-99452380D02*
X142404761Y-99452380D01*
X142500000Y-99500000D01*
X142547619Y-99547619D01*
X142642857Y-99690476D01*
X142690476Y-99880952D01*
X142690476Y-100261904D01*
X142642857Y-100357142D01*
X142595238Y-100404761D01*
X142500000Y-100452380D01*
X142309523Y-100452380D01*
X142214285Y-100404761D01*
X142166666Y-100357142D01*
X142119047Y-100261904D01*
X142119047Y-100023809D01*
X142166666Y-99928571D01*
X142214285Y-99880952D01*
X142309523Y-99833333D01*
X142500000Y-99833333D01*
X142595238Y-99880952D01*
X142642857Y-99928571D01*
X142690476Y-100023809D01*
X159166666Y-101102380D02*
X158595238Y-101102380D01*
X158880952Y-102102380D02*
X158880952Y-101102380D01*
X158119047Y-102102380D02*
X158214285Y-102054761D01*
X158261904Y-102007142D01*
X158309523Y-101911904D01*
X158309523Y-101626190D01*
X158261904Y-101530952D01*
X158214285Y-101483333D01*
X158119047Y-101435714D01*
X157976190Y-101435714D01*
X157880952Y-101483333D01*
X157833333Y-101530952D01*
X157785714Y-101626190D01*
X157785714Y-101911904D01*
X157833333Y-102007142D01*
X157880952Y-102054761D01*
X157976190Y-102102380D01*
X158119047Y-102102380D01*
X157357142Y-102102380D02*
X157357142Y-101102380D01*
X157357142Y-101483333D02*
X157261904Y-101435714D01*
X157071428Y-101435714D01*
X156976190Y-101483333D01*
X156928571Y-101530952D01*
X156880952Y-101626190D01*
X156880952Y-101911904D01*
X156928571Y-102007142D01*
X156976190Y-102054761D01*
X157071428Y-102102380D01*
X157261904Y-102102380D01*
X157357142Y-102054761D01*
X156452380Y-102102380D02*
X156452380Y-101435714D01*
X156452380Y-101102380D02*
X156500000Y-101150000D01*
X156452380Y-101197619D01*
X156404761Y-101150000D01*
X156452380Y-101102380D01*
X156452380Y-101197619D01*
X155547619Y-102102380D02*
X155547619Y-101578571D01*
X155595238Y-101483333D01*
X155690476Y-101435714D01*
X155880952Y-101435714D01*
X155976190Y-101483333D01*
X155547619Y-102054761D02*
X155642857Y-102102380D01*
X155880952Y-102102380D01*
X155976190Y-102054761D01*
X156023809Y-101959523D01*
X156023809Y-101864285D01*
X155976190Y-101769047D01*
X155880952Y-101721428D01*
X155642857Y-101721428D01*
X155547619Y-101673809D01*
X155119047Y-102054761D02*
X155023809Y-102102380D01*
X154833333Y-102102380D01*
X154738095Y-102054761D01*
X154690476Y-101959523D01*
X154690476Y-101911904D01*
X154738095Y-101816666D01*
X154833333Y-101769047D01*
X154976190Y-101769047D01*
X155071428Y-101721428D01*
X155119047Y-101626190D01*
X155119047Y-101578571D01*
X155071428Y-101483333D01*
X154976190Y-101435714D01*
X154833333Y-101435714D01*
X154738095Y-101483333D01*
X153500000Y-102102380D02*
X153500000Y-101102380D01*
X153166666Y-101816666D01*
X152833333Y-101102380D01*
X152833333Y-102102380D01*
X151928571Y-101435714D02*
X151928571Y-102102380D01*
X152357142Y-101435714D02*
X152357142Y-101959523D01*
X152309523Y-102054761D01*
X152214285Y-102102380D01*
X152071428Y-102102380D01*
X151976190Y-102054761D01*
X151928571Y-102007142D01*
X152309523Y-101102380D02*
X152261904Y-101150000D01*
X152309523Y-101197619D01*
X152357142Y-101150000D01*
X152309523Y-101102380D01*
X152309523Y-101197619D01*
X151928571Y-101102380D02*
X151880952Y-101150000D01*
X151928571Y-101197619D01*
X151976190Y-101150000D01*
X151928571Y-101102380D01*
X151928571Y-101197619D01*
X151309523Y-102102380D02*
X151404761Y-102054761D01*
X151452380Y-101959523D01*
X151452380Y-101102380D01*
X150785714Y-102102380D02*
X150880952Y-102054761D01*
X150928571Y-101959523D01*
X150928571Y-101102380D01*
X150023809Y-102054761D02*
X150119047Y-102102380D01*
X150309523Y-102102380D01*
X150404761Y-102054761D01*
X150452380Y-101959523D01*
X150452380Y-101578571D01*
X150404761Y-101483333D01*
X150309523Y-101435714D01*
X150119047Y-101435714D01*
X150023809Y-101483333D01*
X149976190Y-101578571D01*
X149976190Y-101673809D01*
X150452380Y-101769047D01*
X149547619Y-102102380D02*
X149547619Y-101435714D01*
X149547619Y-101626190D02*
X149500000Y-101530952D01*
X149452380Y-101483333D01*
X149357142Y-101435714D01*
X149261904Y-101435714D01*
X148880952Y-102054761D02*
X148880952Y-102102380D01*
X148928571Y-102197619D01*
X148976190Y-102245238D01*
X147833333Y-101435714D02*
X147452380Y-101435714D01*
X147690476Y-101102380D02*
X147690476Y-101959523D01*
X147642857Y-102054761D01*
X147547619Y-102102380D01*
X147452380Y-102102380D01*
X147214285Y-101435714D02*
X147023809Y-102102380D01*
X146833333Y-101626190D01*
X146642857Y-102102380D01*
X146452380Y-101435714D01*
X145642857Y-102102380D02*
X145642857Y-101578571D01*
X145690476Y-101483333D01*
X145785714Y-101435714D01*
X145976190Y-101435714D01*
X146071428Y-101483333D01*
X145642857Y-102054761D02*
X145738095Y-102102380D01*
X145976190Y-102102380D01*
X146071428Y-102054761D01*
X146119047Y-101959523D01*
X146119047Y-101864285D01*
X146071428Y-101769047D01*
X145976190Y-101721428D01*
X145738095Y-101721428D01*
X145642857Y-101673809D01*
X145166666Y-102102380D02*
X145166666Y-101435714D01*
X145166666Y-101530952D02*
X145119047Y-101483333D01*
X145023809Y-101435714D01*
X144880952Y-101435714D01*
X144785714Y-101483333D01*
X144738095Y-101578571D01*
X144738095Y-102102380D01*
X144738095Y-101578571D02*
X144690476Y-101483333D01*
X144595238Y-101435714D01*
X144452380Y-101435714D01*
X144357142Y-101483333D01*
X144309523Y-101578571D01*
X144309523Y-102102380D01*
X143833333Y-102007142D02*
X143785714Y-102054761D01*
X143833333Y-102102380D01*
X143880952Y-102054761D01*
X143833333Y-102007142D01*
X143833333Y-102102380D01*
X143357142Y-102102380D02*
X143357142Y-101435714D01*
X143357142Y-101102380D02*
X143404761Y-101150000D01*
X143357142Y-101197619D01*
X143309523Y-101150000D01*
X143357142Y-101102380D01*
X143357142Y-101197619D01*
X142880952Y-101435714D02*
X142880952Y-102102380D01*
X142880952Y-101530952D02*
X142833333Y-101483333D01*
X142738095Y-101435714D01*
X142595238Y-101435714D01*
X142500000Y-101483333D01*
X142452380Y-101578571D01*
X142452380Y-102102380D01*
X142119047Y-101435714D02*
X141738095Y-101435714D01*
X141976190Y-102102380D02*
X141976190Y-101245238D01*
X141928571Y-101150000D01*
X141833333Y-101102380D01*
X141738095Y-101102380D01*
X141261904Y-102102380D02*
X141357142Y-102054761D01*
X141404761Y-102007142D01*
X141452380Y-101911904D01*
X141452380Y-101626190D01*
X141404761Y-101530952D01*
X141357142Y-101483333D01*
X141261904Y-101435714D01*
X141119047Y-101435714D01*
X141023809Y-101483333D01*
X140976190Y-101530952D01*
X140928571Y-101626190D01*
X140928571Y-101911904D01*
X140976190Y-102007142D01*
X141023809Y-102054761D01*
X141119047Y-102102380D01*
X141261904Y-102102380D01*
D11*
%TO.C,J1*%
X156670000Y-52380000D02*
X156670000Y-54980000D01*
X156670000Y-52380000D02*
X166950000Y-52380000D01*
X166950000Y-52380000D02*
X166950000Y-57580000D01*
X159270000Y-57580000D02*
X166950000Y-57580000D01*
X159270000Y-54980000D02*
X159270000Y-57580000D01*
X156670000Y-54980000D02*
X159270000Y-54980000D01*
X156670000Y-57580000D02*
X158000000Y-57580000D01*
X156670000Y-56250000D02*
X156670000Y-57580000D01*
%TO.C,J4*%
X128530000Y-121270000D02*
X125870000Y-121270000D01*
X128530000Y-121270000D02*
X128530000Y-139110000D01*
X128530000Y-139110000D02*
X125870000Y-139110000D01*
X125870000Y-121270000D02*
X125870000Y-139110000D01*
X125870000Y-118670000D02*
X125870000Y-120000000D01*
X127200000Y-118670000D02*
X125870000Y-118670000D01*
%TO.C,J3*%
X174130000Y-116190000D02*
X171470000Y-116190000D01*
X174130000Y-116190000D02*
X174130000Y-139110000D01*
X174130000Y-139110000D02*
X171470000Y-139110000D01*
X171470000Y-116190000D02*
X171470000Y-139110000D01*
X171470000Y-113590000D02*
X171470000Y-114920000D01*
X172800000Y-113590000D02*
X171470000Y-113590000D01*
%TO.C,J1*%
D10*
X154682380Y-54646666D02*
X155396666Y-54646666D01*
X155539523Y-54599047D01*
X155634761Y-54503809D01*
X155682380Y-54360952D01*
X155682380Y-54265714D01*
X155682380Y-55646666D02*
X155682380Y-55075238D01*
X155682380Y-55360952D02*
X154682380Y-55360952D01*
X154825238Y-55265714D01*
X154920476Y-55170476D01*
X154968095Y-55075238D01*
%TD*%
M02*
