%TF.GenerationSoftware,KiCad,Pcbnew,(5.1.9-0-10_14)*%
%TF.CreationDate,2021-03-07T13:53:49+01:00*%
%TF.ProjectId,ADC Piggy Board,41444320-5069-4676-9779-20426f617264,rev?*%
%TF.SameCoordinates,Original*%
%TF.FileFunction,Soldermask,Top*%
%TF.FilePolarity,Negative*%
%FSLAX46Y46*%
G04 Gerber Fmt 4.6, Leading zero omitted, Abs format (unit mm)*
G04 Created by KiCad (PCBNEW (5.1.9-0-10_14)) date 2021-03-07 13:53:49*
%MOMM*%
%LPD*%
G01*
G04 APERTURE LIST*
%ADD10O,1.700000X1.700000*%
%ADD11R,1.700000X1.700000*%
%ADD12C,2.700000*%
%ADD13C,5.600000*%
G04 APERTURE END LIST*
D10*
%TO.C,J7*%
X169700000Y-88460000D03*
X169700000Y-91000000D03*
X167160000Y-88460000D03*
X167160000Y-91000000D03*
X164620000Y-88460000D03*
X164620000Y-91000000D03*
X162080000Y-88460000D03*
X162080000Y-91000000D03*
X159540000Y-88460000D03*
X159540000Y-91000000D03*
X157000000Y-88460000D03*
D11*
X157000000Y-91000000D03*
%TD*%
D10*
%TO.C,J1*%
X165620000Y-53710000D03*
X165620000Y-56250000D03*
X163080000Y-53710000D03*
X163080000Y-56250000D03*
X160540000Y-53710000D03*
X160540000Y-56250000D03*
X158000000Y-53710000D03*
D11*
X158000000Y-56250000D03*
%TD*%
D12*
%TO.C,J6*%
X138120000Y-91000000D03*
X142080000Y-91000000D03*
X146040000Y-91000000D03*
G36*
G01*
X151350000Y-89900001D02*
X151350000Y-92099999D01*
G75*
G02*
X151099999Y-92350000I-250001J0D01*
G01*
X148900001Y-92350000D01*
G75*
G02*
X148650000Y-92099999I0J250001D01*
G01*
X148650000Y-89900001D01*
G75*
G02*
X148900001Y-89650000I250001J0D01*
G01*
X151099999Y-89650000D01*
G75*
G02*
X151350000Y-89900001I0J-250001D01*
G01*
G37*
%TD*%
D13*
%TO.C,H2*%
X171000000Y-54000000D03*
%TD*%
%TO.C,H1*%
X129000000Y-54000000D03*
%TD*%
D10*
%TO.C,J4*%
X127200000Y-137780000D03*
X127200000Y-135240000D03*
X127200000Y-132700000D03*
X127200000Y-130160000D03*
X127200000Y-127620000D03*
X127200000Y-125080000D03*
X127200000Y-122540000D03*
D11*
X127200000Y-120000000D03*
%TD*%
D10*
%TO.C,J3*%
X172800000Y-137780000D03*
X172800000Y-135240000D03*
X172800000Y-132700000D03*
X172800000Y-130160000D03*
X172800000Y-127620000D03*
X172800000Y-125080000D03*
X172800000Y-122540000D03*
X172800000Y-120000000D03*
X172800000Y-117460000D03*
D11*
X172800000Y-114920000D03*
%TD*%
M02*
