%TF.GenerationSoftware,KiCad,Pcbnew,(5.1.9-0-10_14)*%
%TF.CreationDate,2021-03-07T13:53:49+01:00*%
%TF.ProjectId,ADC Piggy Board,41444320-5069-4676-9779-20426f617264,rev?*%
%TF.SameCoordinates,Original*%
%TF.FileFunction,Legend,Top*%
%TF.FilePolarity,Positive*%
%FSLAX46Y46*%
G04 Gerber Fmt 4.6, Leading zero omitted, Abs format (unit mm)*
G04 Created by KiCad (PCBNEW (5.1.9-0-10_14)) date 2021-03-07 13:53:49*
%MOMM*%
%LPD*%
G01*
G04 APERTURE LIST*
%ADD10C,0.120000*%
%ADD11C,0.150000*%
G04 APERTURE END LIST*
D10*
X170955000Y-101905000D02*
X155715000Y-101905000D01*
X170955000Y-97460000D02*
X155715000Y-97460000D01*
X155715000Y-93015000D02*
X155715000Y-101905000D01*
X158255000Y-93015000D02*
X158255000Y-101905000D01*
X160795000Y-93015000D02*
X160795000Y-101905000D01*
X163335000Y-93015000D02*
X163335000Y-101905000D01*
X165875000Y-93015000D02*
X165875000Y-101905000D01*
X168415000Y-93015000D02*
X168415000Y-101905000D01*
X170955000Y-93015000D02*
X170955000Y-101905000D01*
X155715000Y-93015000D02*
X170955000Y-93015000D01*
D11*
X170137380Y-101420595D02*
X169137380Y-101420595D01*
X169851666Y-101087261D01*
X169137380Y-100753928D01*
X170137380Y-100753928D01*
X170042142Y-99706309D02*
X170089761Y-99753928D01*
X170137380Y-99896785D01*
X170137380Y-99992023D01*
X170089761Y-100134880D01*
X169994523Y-100230119D01*
X169899285Y-100277738D01*
X169708809Y-100325357D01*
X169565952Y-100325357D01*
X169375476Y-100277738D01*
X169280238Y-100230119D01*
X169185000Y-100134880D01*
X169137380Y-99992023D01*
X169137380Y-99896785D01*
X169185000Y-99753928D01*
X169232619Y-99706309D01*
X170137380Y-98801547D02*
X170137380Y-99277738D01*
X169137380Y-99277738D01*
X170137380Y-98468214D02*
X169137380Y-98468214D01*
X170137380Y-97896785D02*
X169565952Y-98325357D01*
X169137380Y-97896785D02*
X169708809Y-98468214D01*
X167597380Y-100872976D02*
X167597380Y-101349166D01*
X166597380Y-101349166D01*
X167597380Y-99968214D02*
X167121190Y-100301547D01*
X167597380Y-100539642D02*
X166597380Y-100539642D01*
X166597380Y-100158690D01*
X166645000Y-100063452D01*
X166692619Y-100015833D01*
X166787857Y-99968214D01*
X166930714Y-99968214D01*
X167025952Y-100015833D01*
X167073571Y-100063452D01*
X167121190Y-100158690D01*
X167121190Y-100539642D01*
X167502142Y-98968214D02*
X167549761Y-99015833D01*
X167597380Y-99158690D01*
X167597380Y-99253928D01*
X167549761Y-99396785D01*
X167454523Y-99492023D01*
X167359285Y-99539642D01*
X167168809Y-99587261D01*
X167025952Y-99587261D01*
X166835476Y-99539642D01*
X166740238Y-99492023D01*
X166645000Y-99396785D01*
X166597380Y-99253928D01*
X166597380Y-99158690D01*
X166645000Y-99015833D01*
X166692619Y-98968214D01*
X167597380Y-98539642D02*
X166597380Y-98539642D01*
X167597380Y-97968214D02*
X167025952Y-98396785D01*
X166597380Y-97968214D02*
X167168809Y-98539642D01*
X164533571Y-101015833D02*
X164581190Y-100872976D01*
X164628809Y-100825357D01*
X164724047Y-100777738D01*
X164866904Y-100777738D01*
X164962142Y-100825357D01*
X165009761Y-100872976D01*
X165057380Y-100968214D01*
X165057380Y-101349166D01*
X164057380Y-101349166D01*
X164057380Y-101015833D01*
X164105000Y-100920595D01*
X164152619Y-100872976D01*
X164247857Y-100825357D01*
X164343095Y-100825357D01*
X164438333Y-100872976D01*
X164485952Y-100920595D01*
X164533571Y-101015833D01*
X164533571Y-101349166D01*
X164962142Y-99777738D02*
X165009761Y-99825357D01*
X165057380Y-99968214D01*
X165057380Y-100063452D01*
X165009761Y-100206309D01*
X164914523Y-100301547D01*
X164819285Y-100349166D01*
X164628809Y-100396785D01*
X164485952Y-100396785D01*
X164295476Y-100349166D01*
X164200238Y-100301547D01*
X164105000Y-100206309D01*
X164057380Y-100063452D01*
X164057380Y-99968214D01*
X164105000Y-99825357D01*
X164152619Y-99777738D01*
X165057380Y-98872976D02*
X165057380Y-99349166D01*
X164057380Y-99349166D01*
X165057380Y-98539642D02*
X164057380Y-98539642D01*
X165057380Y-97968214D02*
X164485952Y-98396785D01*
X164057380Y-97968214D02*
X164628809Y-98539642D01*
X162517380Y-101182500D02*
X161517380Y-101182500D01*
X161517380Y-100944404D01*
X161565000Y-100801547D01*
X161660238Y-100706309D01*
X161755476Y-100658690D01*
X161945952Y-100611071D01*
X162088809Y-100611071D01*
X162279285Y-100658690D01*
X162374523Y-100706309D01*
X162469761Y-100801547D01*
X162517380Y-100944404D01*
X162517380Y-101182500D01*
X162231666Y-100230119D02*
X162231666Y-99753928D01*
X162517380Y-100325357D02*
X161517380Y-99992023D01*
X162517380Y-99658690D01*
X161517380Y-99468214D02*
X161517380Y-98896785D01*
X162517380Y-99182500D02*
X161517380Y-99182500D01*
X162231666Y-98611071D02*
X162231666Y-98134880D01*
X162517380Y-98706309D02*
X161517380Y-98372976D01*
X162517380Y-98039642D01*
X159025000Y-100444404D02*
X158977380Y-100539642D01*
X158977380Y-100682500D01*
X159025000Y-100825357D01*
X159120238Y-100920595D01*
X159215476Y-100968214D01*
X159405952Y-101015833D01*
X159548809Y-101015833D01*
X159739285Y-100968214D01*
X159834523Y-100920595D01*
X159929761Y-100825357D01*
X159977380Y-100682500D01*
X159977380Y-100587261D01*
X159929761Y-100444404D01*
X159882142Y-100396785D01*
X159548809Y-100396785D01*
X159548809Y-100587261D01*
X159977380Y-99968214D02*
X158977380Y-99968214D01*
X159977380Y-99396785D01*
X158977380Y-99396785D01*
X159977380Y-98920595D02*
X158977380Y-98920595D01*
X158977380Y-98682500D01*
X159025000Y-98539642D01*
X159120238Y-98444404D01*
X159215476Y-98396785D01*
X159405952Y-98349166D01*
X159548809Y-98349166D01*
X159739285Y-98396785D01*
X159834523Y-98444404D01*
X159929761Y-98539642D01*
X159977380Y-98682500D01*
X159977380Y-98920595D01*
X156437380Y-100920595D02*
X156437380Y-100301547D01*
X156818333Y-100634880D01*
X156818333Y-100492023D01*
X156865952Y-100396785D01*
X156913571Y-100349166D01*
X157008809Y-100301547D01*
X157246904Y-100301547D01*
X157342142Y-100349166D01*
X157389761Y-100396785D01*
X157437380Y-100492023D01*
X157437380Y-100777738D01*
X157389761Y-100872976D01*
X157342142Y-100920595D01*
X156437380Y-100015833D02*
X157437380Y-99682500D01*
X156437380Y-99349166D01*
X156437380Y-99111071D02*
X156437380Y-98492023D01*
X156818333Y-98825357D01*
X156818333Y-98682500D01*
X156865952Y-98587261D01*
X156913571Y-98539642D01*
X157008809Y-98492023D01*
X157246904Y-98492023D01*
X157342142Y-98539642D01*
X157389761Y-98587261D01*
X157437380Y-98682500D01*
X157437380Y-98968214D01*
X157389761Y-99063452D01*
X157342142Y-99111071D01*
X170089761Y-96427976D02*
X170137380Y-96285119D01*
X170137380Y-96047023D01*
X170089761Y-95951785D01*
X170042142Y-95904166D01*
X169946904Y-95856547D01*
X169851666Y-95856547D01*
X169756428Y-95904166D01*
X169708809Y-95951785D01*
X169661190Y-96047023D01*
X169613571Y-96237500D01*
X169565952Y-96332738D01*
X169518333Y-96380357D01*
X169423095Y-96427976D01*
X169327857Y-96427976D01*
X169232619Y-96380357D01*
X169185000Y-96332738D01*
X169137380Y-96237500D01*
X169137380Y-95999404D01*
X169185000Y-95856547D01*
X170042142Y-94856547D02*
X170089761Y-94904166D01*
X170137380Y-95047023D01*
X170137380Y-95142261D01*
X170089761Y-95285119D01*
X169994523Y-95380357D01*
X169899285Y-95427976D01*
X169708809Y-95475595D01*
X169565952Y-95475595D01*
X169375476Y-95427976D01*
X169280238Y-95380357D01*
X169185000Y-95285119D01*
X169137380Y-95142261D01*
X169137380Y-95047023D01*
X169185000Y-94904166D01*
X169232619Y-94856547D01*
X170137380Y-93951785D02*
X170137380Y-94427976D01*
X169137380Y-94427976D01*
X167549761Y-96451785D02*
X167597380Y-96308928D01*
X167597380Y-96070833D01*
X167549761Y-95975595D01*
X167502142Y-95927976D01*
X167406904Y-95880357D01*
X167311666Y-95880357D01*
X167216428Y-95927976D01*
X167168809Y-95975595D01*
X167121190Y-96070833D01*
X167073571Y-96261309D01*
X167025952Y-96356547D01*
X166978333Y-96404166D01*
X166883095Y-96451785D01*
X166787857Y-96451785D01*
X166692619Y-96404166D01*
X166645000Y-96356547D01*
X166597380Y-96261309D01*
X166597380Y-96023214D01*
X166645000Y-95880357D01*
X167597380Y-95451785D02*
X166597380Y-95451785D01*
X166597380Y-95213690D01*
X166645000Y-95070833D01*
X166740238Y-94975595D01*
X166835476Y-94927976D01*
X167025952Y-94880357D01*
X167168809Y-94880357D01*
X167359285Y-94927976D01*
X167454523Y-94975595D01*
X167549761Y-95070833D01*
X167597380Y-95213690D01*
X167597380Y-95451785D01*
X167311666Y-94499404D02*
X167311666Y-94023214D01*
X167597380Y-94594642D02*
X166597380Y-94261309D01*
X167597380Y-93927976D01*
X159025000Y-95999404D02*
X158977380Y-96094642D01*
X158977380Y-96237500D01*
X159025000Y-96380357D01*
X159120238Y-96475595D01*
X159215476Y-96523214D01*
X159405952Y-96570833D01*
X159548809Y-96570833D01*
X159739285Y-96523214D01*
X159834523Y-96475595D01*
X159929761Y-96380357D01*
X159977380Y-96237500D01*
X159977380Y-96142261D01*
X159929761Y-95999404D01*
X159882142Y-95951785D01*
X159548809Y-95951785D01*
X159548809Y-96142261D01*
X159977380Y-95523214D02*
X158977380Y-95523214D01*
X159977380Y-94951785D01*
X158977380Y-94951785D01*
X159977380Y-94475595D02*
X158977380Y-94475595D01*
X158977380Y-94237500D01*
X159025000Y-94094642D01*
X159120238Y-93999404D01*
X159215476Y-93951785D01*
X159405952Y-93904166D01*
X159548809Y-93904166D01*
X159739285Y-93951785D01*
X159834523Y-93999404D01*
X159929761Y-94094642D01*
X159977380Y-94237500D01*
X159977380Y-94475595D01*
X156437380Y-96475595D02*
X156437380Y-95856547D01*
X156818333Y-96189880D01*
X156818333Y-96047023D01*
X156865952Y-95951785D01*
X156913571Y-95904166D01*
X157008809Y-95856547D01*
X157246904Y-95856547D01*
X157342142Y-95904166D01*
X157389761Y-95951785D01*
X157437380Y-96047023D01*
X157437380Y-96332738D01*
X157389761Y-96427976D01*
X157342142Y-96475595D01*
X156437380Y-95570833D02*
X157437380Y-95237500D01*
X156437380Y-94904166D01*
X156437380Y-94666071D02*
X156437380Y-94047023D01*
X156818333Y-94380357D01*
X156818333Y-94237500D01*
X156865952Y-94142261D01*
X156913571Y-94094642D01*
X157008809Y-94047023D01*
X157246904Y-94047023D01*
X157342142Y-94094642D01*
X157389761Y-94142261D01*
X157437380Y-94237500D01*
X157437380Y-94523214D01*
X157389761Y-94618452D01*
X157342142Y-94666071D01*
X148666666Y-93102380D02*
X149000000Y-94102380D01*
X149333333Y-93102380D01*
X150238095Y-94007142D02*
X150190476Y-94054761D01*
X150047619Y-94102380D01*
X149952380Y-94102380D01*
X149809523Y-94054761D01*
X149714285Y-93959523D01*
X149666666Y-93864285D01*
X149619047Y-93673809D01*
X149619047Y-93530952D01*
X149666666Y-93340476D01*
X149714285Y-93245238D01*
X149809523Y-93150000D01*
X149952380Y-93102380D01*
X150047619Y-93102380D01*
X150190476Y-93150000D01*
X150238095Y-93197619D01*
X151238095Y-94007142D02*
X151190476Y-94054761D01*
X151047619Y-94102380D01*
X150952380Y-94102380D01*
X150809523Y-94054761D01*
X150714285Y-93959523D01*
X150666666Y-93864285D01*
X150619047Y-93673809D01*
X150619047Y-93530952D01*
X150666666Y-93340476D01*
X150714285Y-93245238D01*
X150809523Y-93150000D01*
X150952380Y-93102380D01*
X151047619Y-93102380D01*
X151190476Y-93150000D01*
X151238095Y-93197619D01*
X144801904Y-93102380D02*
X145135238Y-94102380D01*
X145468571Y-93102380D01*
X145801904Y-93578571D02*
X146135238Y-93578571D01*
X146278095Y-94102380D02*
X145801904Y-94102380D01*
X145801904Y-93102380D01*
X146278095Y-93102380D01*
X146706666Y-93578571D02*
X147040000Y-93578571D01*
X147182857Y-94102380D02*
X146706666Y-94102380D01*
X146706666Y-93102380D01*
X147182857Y-93102380D01*
X141318095Y-93150000D02*
X141222857Y-93102380D01*
X141080000Y-93102380D01*
X140937142Y-93150000D01*
X140841904Y-93245238D01*
X140794285Y-93340476D01*
X140746666Y-93530952D01*
X140746666Y-93673809D01*
X140794285Y-93864285D01*
X140841904Y-93959523D01*
X140937142Y-94054761D01*
X141080000Y-94102380D01*
X141175238Y-94102380D01*
X141318095Y-94054761D01*
X141365714Y-94007142D01*
X141365714Y-93673809D01*
X141175238Y-93673809D01*
X141794285Y-94102380D02*
X141794285Y-93102380D01*
X142365714Y-94102380D01*
X142365714Y-93102380D01*
X142841904Y-94102380D02*
X142841904Y-93102380D01*
X143080000Y-93102380D01*
X143222857Y-93150000D01*
X143318095Y-93245238D01*
X143365714Y-93340476D01*
X143413333Y-93530952D01*
X143413333Y-93673809D01*
X143365714Y-93864285D01*
X143318095Y-93959523D01*
X143222857Y-94054761D01*
X143080000Y-94102380D01*
X142841904Y-94102380D01*
X137429523Y-93102380D02*
X136953333Y-93102380D01*
X136905714Y-93578571D01*
X136953333Y-93530952D01*
X137048571Y-93483333D01*
X137286666Y-93483333D01*
X137381904Y-93530952D01*
X137429523Y-93578571D01*
X137477142Y-93673809D01*
X137477142Y-93911904D01*
X137429523Y-94007142D01*
X137381904Y-94054761D01*
X137286666Y-94102380D01*
X137048571Y-94102380D01*
X136953333Y-94054761D01*
X136905714Y-94007142D01*
X137762857Y-93102380D02*
X138096190Y-94102380D01*
X138429523Y-93102380D01*
X138762857Y-94102380D02*
X138762857Y-93102380D01*
X139000952Y-93102380D01*
X139143809Y-93150000D01*
X139239047Y-93245238D01*
X139286666Y-93340476D01*
X139334285Y-93530952D01*
X139334285Y-93673809D01*
X139286666Y-93864285D01*
X139239047Y-93959523D01*
X139143809Y-94054761D01*
X139000952Y-94102380D01*
X138762857Y-94102380D01*
X168921071Y-130564761D02*
X169063928Y-130612380D01*
X169302023Y-130612380D01*
X169397261Y-130564761D01*
X169444880Y-130517142D01*
X169492500Y-130421904D01*
X169492500Y-130326666D01*
X169444880Y-130231428D01*
X169397261Y-130183809D01*
X169302023Y-130136190D01*
X169111547Y-130088571D01*
X169016309Y-130040952D01*
X168968690Y-129993333D01*
X168921071Y-129898095D01*
X168921071Y-129802857D01*
X168968690Y-129707619D01*
X169016309Y-129660000D01*
X169111547Y-129612380D01*
X169349642Y-129612380D01*
X169492500Y-129660000D01*
X170492500Y-130517142D02*
X170444880Y-130564761D01*
X170302023Y-130612380D01*
X170206785Y-130612380D01*
X170063928Y-130564761D01*
X169968690Y-130469523D01*
X169921071Y-130374285D01*
X169873452Y-130183809D01*
X169873452Y-130040952D01*
X169921071Y-129850476D01*
X169968690Y-129755238D01*
X170063928Y-129660000D01*
X170206785Y-129612380D01*
X170302023Y-129612380D01*
X170444880Y-129660000D01*
X170492500Y-129707619D01*
X171397261Y-130612380D02*
X170921071Y-130612380D01*
X170921071Y-129612380D01*
X168873452Y-128024761D02*
X169016309Y-128072380D01*
X169254404Y-128072380D01*
X169349642Y-128024761D01*
X169397261Y-127977142D01*
X169444880Y-127881904D01*
X169444880Y-127786666D01*
X169397261Y-127691428D01*
X169349642Y-127643809D01*
X169254404Y-127596190D01*
X169063928Y-127548571D01*
X168968690Y-127500952D01*
X168921071Y-127453333D01*
X168873452Y-127358095D01*
X168873452Y-127262857D01*
X168921071Y-127167619D01*
X168968690Y-127120000D01*
X169063928Y-127072380D01*
X169302023Y-127072380D01*
X169444880Y-127120000D01*
X169873452Y-128072380D02*
X169873452Y-127072380D01*
X170111547Y-127072380D01*
X170254404Y-127120000D01*
X170349642Y-127215238D01*
X170397261Y-127310476D01*
X170444880Y-127500952D01*
X170444880Y-127643809D01*
X170397261Y-127834285D01*
X170349642Y-127929523D01*
X170254404Y-128024761D01*
X170111547Y-128072380D01*
X169873452Y-128072380D01*
X170825833Y-127786666D02*
X171302023Y-127786666D01*
X170730595Y-128072380D02*
X171063928Y-127072380D01*
X171397261Y-128072380D01*
X169206785Y-114420000D02*
X169111547Y-114372380D01*
X168968690Y-114372380D01*
X168825833Y-114420000D01*
X168730595Y-114515238D01*
X168682976Y-114610476D01*
X168635357Y-114800952D01*
X168635357Y-114943809D01*
X168682976Y-115134285D01*
X168730595Y-115229523D01*
X168825833Y-115324761D01*
X168968690Y-115372380D01*
X169063928Y-115372380D01*
X169206785Y-115324761D01*
X169254404Y-115277142D01*
X169254404Y-114943809D01*
X169063928Y-114943809D01*
X169682976Y-115372380D02*
X169682976Y-114372380D01*
X170254404Y-115372380D01*
X170254404Y-114372380D01*
X170730595Y-115372380D02*
X170730595Y-114372380D01*
X170968690Y-114372380D01*
X171111547Y-114420000D01*
X171206785Y-114515238D01*
X171254404Y-114610476D01*
X171302023Y-114800952D01*
X171302023Y-114943809D01*
X171254404Y-115134285D01*
X171206785Y-115229523D01*
X171111547Y-115324761D01*
X170968690Y-115372380D01*
X170730595Y-115372380D01*
X169397261Y-116912380D02*
X168921071Y-116912380D01*
X168873452Y-117388571D01*
X168921071Y-117340952D01*
X169016309Y-117293333D01*
X169254404Y-117293333D01*
X169349642Y-117340952D01*
X169397261Y-117388571D01*
X169444880Y-117483809D01*
X169444880Y-117721904D01*
X169397261Y-117817142D01*
X169349642Y-117864761D01*
X169254404Y-117912380D01*
X169016309Y-117912380D01*
X168921071Y-117864761D01*
X168873452Y-117817142D01*
X169730595Y-116912380D02*
X170063928Y-117912380D01*
X170397261Y-116912380D01*
X170730595Y-117912380D02*
X170730595Y-116912380D01*
X170968690Y-116912380D01*
X171111547Y-116960000D01*
X171206785Y-117055238D01*
X171254404Y-117150476D01*
X171302023Y-117340952D01*
X171302023Y-117483809D01*
X171254404Y-117674285D01*
X171206785Y-117769523D01*
X171111547Y-117864761D01*
X170968690Y-117912380D01*
X170730595Y-117912380D01*
X169206785Y-132200000D02*
X169111547Y-132152380D01*
X168968690Y-132152380D01*
X168825833Y-132200000D01*
X168730595Y-132295238D01*
X168682976Y-132390476D01*
X168635357Y-132580952D01*
X168635357Y-132723809D01*
X168682976Y-132914285D01*
X168730595Y-133009523D01*
X168825833Y-133104761D01*
X168968690Y-133152380D01*
X169063928Y-133152380D01*
X169206785Y-133104761D01*
X169254404Y-133057142D01*
X169254404Y-132723809D01*
X169063928Y-132723809D01*
X169682976Y-133152380D02*
X169682976Y-132152380D01*
X170254404Y-133152380D01*
X170254404Y-132152380D01*
X170730595Y-133152380D02*
X170730595Y-132152380D01*
X170968690Y-132152380D01*
X171111547Y-132200000D01*
X171206785Y-132295238D01*
X171254404Y-132390476D01*
X171302023Y-132580952D01*
X171302023Y-132723809D01*
X171254404Y-132914285D01*
X171206785Y-133009523D01*
X171111547Y-133104761D01*
X170968690Y-133152380D01*
X170730595Y-133152380D01*
X169206785Y-119500000D02*
X169111547Y-119452380D01*
X168968690Y-119452380D01*
X168825833Y-119500000D01*
X168730595Y-119595238D01*
X168682976Y-119690476D01*
X168635357Y-119880952D01*
X168635357Y-120023809D01*
X168682976Y-120214285D01*
X168730595Y-120309523D01*
X168825833Y-120404761D01*
X168968690Y-120452380D01*
X169063928Y-120452380D01*
X169206785Y-120404761D01*
X169254404Y-120357142D01*
X169254404Y-120023809D01*
X169063928Y-120023809D01*
X169682976Y-120452380D02*
X169682976Y-119452380D01*
X170254404Y-120452380D01*
X170254404Y-119452380D01*
X170730595Y-120452380D02*
X170730595Y-119452380D01*
X170968690Y-119452380D01*
X171111547Y-119500000D01*
X171206785Y-119595238D01*
X171254404Y-119690476D01*
X171302023Y-119880952D01*
X171302023Y-120023809D01*
X171254404Y-120214285D01*
X171206785Y-120309523D01*
X171111547Y-120404761D01*
X170968690Y-120452380D01*
X170730595Y-120452380D01*
X129209404Y-124580000D02*
X129114166Y-124532380D01*
X128971309Y-124532380D01*
X128828452Y-124580000D01*
X128733214Y-124675238D01*
X128685595Y-124770476D01*
X128637976Y-124960952D01*
X128637976Y-125103809D01*
X128685595Y-125294285D01*
X128733214Y-125389523D01*
X128828452Y-125484761D01*
X128971309Y-125532380D01*
X129066547Y-125532380D01*
X129209404Y-125484761D01*
X129257023Y-125437142D01*
X129257023Y-125103809D01*
X129066547Y-125103809D01*
X129685595Y-125532380D02*
X129685595Y-124532380D01*
X130257023Y-125532380D01*
X130257023Y-124532380D01*
X130733214Y-125532380D02*
X130733214Y-124532380D01*
X130971309Y-124532380D01*
X131114166Y-124580000D01*
X131209404Y-124675238D01*
X131257023Y-124770476D01*
X131304642Y-124960952D01*
X131304642Y-125103809D01*
X131257023Y-125294285D01*
X131209404Y-125389523D01*
X131114166Y-125484761D01*
X130971309Y-125532380D01*
X130733214Y-125532380D01*
X128542738Y-129612380D02*
X128876071Y-130612380D01*
X129209404Y-129612380D01*
X129542738Y-130088571D02*
X129876071Y-130088571D01*
X130018928Y-130612380D02*
X129542738Y-130612380D01*
X129542738Y-129612380D01*
X130018928Y-129612380D01*
X130447500Y-130088571D02*
X130780833Y-130088571D01*
X130923690Y-130612380D02*
X130447500Y-130612380D01*
X130447500Y-129612380D01*
X130923690Y-129612380D01*
X129209404Y-119500000D02*
X129114166Y-119452380D01*
X128971309Y-119452380D01*
X128828452Y-119500000D01*
X128733214Y-119595238D01*
X128685595Y-119690476D01*
X128637976Y-119880952D01*
X128637976Y-120023809D01*
X128685595Y-120214285D01*
X128733214Y-120309523D01*
X128828452Y-120404761D01*
X128971309Y-120452380D01*
X129066547Y-120452380D01*
X129209404Y-120404761D01*
X129257023Y-120357142D01*
X129257023Y-120023809D01*
X129066547Y-120023809D01*
X129685595Y-120452380D02*
X129685595Y-119452380D01*
X130257023Y-120452380D01*
X130257023Y-119452380D01*
X130733214Y-120452380D02*
X130733214Y-119452380D01*
X130971309Y-119452380D01*
X131114166Y-119500000D01*
X131209404Y-119595238D01*
X131257023Y-119690476D01*
X131304642Y-119880952D01*
X131304642Y-120023809D01*
X131257023Y-120214285D01*
X131209404Y-120309523D01*
X131114166Y-120404761D01*
X130971309Y-120452380D01*
X130733214Y-120452380D01*
X129209404Y-132200000D02*
X129114166Y-132152380D01*
X128971309Y-132152380D01*
X128828452Y-132200000D01*
X128733214Y-132295238D01*
X128685595Y-132390476D01*
X128637976Y-132580952D01*
X128637976Y-132723809D01*
X128685595Y-132914285D01*
X128733214Y-133009523D01*
X128828452Y-133104761D01*
X128971309Y-133152380D01*
X129066547Y-133152380D01*
X129209404Y-133104761D01*
X129257023Y-133057142D01*
X129257023Y-132723809D01*
X129066547Y-132723809D01*
X129685595Y-133152380D02*
X129685595Y-132152380D01*
X130257023Y-133152380D01*
X130257023Y-132152380D01*
X130733214Y-133152380D02*
X130733214Y-132152380D01*
X130971309Y-132152380D01*
X131114166Y-132200000D01*
X131209404Y-132295238D01*
X131257023Y-132390476D01*
X131304642Y-132580952D01*
X131304642Y-132723809D01*
X131257023Y-132914285D01*
X131209404Y-133009523D01*
X131114166Y-133104761D01*
X130971309Y-133152380D01*
X130733214Y-133152380D01*
X128542738Y-127072380D02*
X128876071Y-128072380D01*
X129209404Y-127072380D01*
X130114166Y-127977142D02*
X130066547Y-128024761D01*
X129923690Y-128072380D01*
X129828452Y-128072380D01*
X129685595Y-128024761D01*
X129590357Y-127929523D01*
X129542738Y-127834285D01*
X129495119Y-127643809D01*
X129495119Y-127500952D01*
X129542738Y-127310476D01*
X129590357Y-127215238D01*
X129685595Y-127120000D01*
X129828452Y-127072380D01*
X129923690Y-127072380D01*
X130066547Y-127120000D01*
X130114166Y-127167619D01*
X131114166Y-127977142D02*
X131066547Y-128024761D01*
X130923690Y-128072380D01*
X130828452Y-128072380D01*
X130685595Y-128024761D01*
X130590357Y-127929523D01*
X130542738Y-127834285D01*
X130495119Y-127643809D01*
X130495119Y-127500952D01*
X130542738Y-127310476D01*
X130590357Y-127215238D01*
X130685595Y-127120000D01*
X130828452Y-127072380D01*
X130923690Y-127072380D01*
X131066547Y-127120000D01*
X131114166Y-127167619D01*
X139348452Y-84847380D02*
X139348452Y-85561666D01*
X139300833Y-85704523D01*
X139205595Y-85799761D01*
X139062738Y-85847380D01*
X138967500Y-85847380D01*
X140300833Y-85847380D02*
X139824642Y-85847380D01*
X139824642Y-84847380D01*
X141205595Y-85752142D02*
X141157976Y-85799761D01*
X141015119Y-85847380D01*
X140919880Y-85847380D01*
X140777023Y-85799761D01*
X140681785Y-85704523D01*
X140634166Y-85609285D01*
X140586547Y-85418809D01*
X140586547Y-85275952D01*
X140634166Y-85085476D01*
X140681785Y-84990238D01*
X140777023Y-84895000D01*
X140919880Y-84847380D01*
X141015119Y-84847380D01*
X141157976Y-84895000D01*
X141205595Y-84942619D01*
X141919880Y-84847380D02*
X141919880Y-85561666D01*
X141872261Y-85704523D01*
X141777023Y-85799761D01*
X141634166Y-85847380D01*
X141538928Y-85847380D01*
X142872261Y-85847380D02*
X142396071Y-85847380D01*
X142396071Y-84847380D01*
X143777023Y-85752142D02*
X143729404Y-85799761D01*
X143586547Y-85847380D01*
X143491309Y-85847380D01*
X143348452Y-85799761D01*
X143253214Y-85704523D01*
X143205595Y-85609285D01*
X143157976Y-85418809D01*
X143157976Y-85275952D01*
X143205595Y-85085476D01*
X143253214Y-84990238D01*
X143348452Y-84895000D01*
X143491309Y-84847380D01*
X143586547Y-84847380D01*
X143729404Y-84895000D01*
X143777023Y-84942619D01*
X144491309Y-84847380D02*
X144491309Y-85561666D01*
X144443690Y-85704523D01*
X144348452Y-85799761D01*
X144205595Y-85847380D01*
X144110357Y-85847380D01*
X145443690Y-85847380D02*
X144967500Y-85847380D01*
X144967500Y-84847380D01*
X146348452Y-85752142D02*
X146300833Y-85799761D01*
X146157976Y-85847380D01*
X146062738Y-85847380D01*
X145919880Y-85799761D01*
X145824642Y-85704523D01*
X145777023Y-85609285D01*
X145729404Y-85418809D01*
X145729404Y-85275952D01*
X145777023Y-85085476D01*
X145824642Y-84990238D01*
X145919880Y-84895000D01*
X146062738Y-84847380D01*
X146157976Y-84847380D01*
X146300833Y-84895000D01*
X146348452Y-84942619D01*
X147062738Y-84847380D02*
X147062738Y-85561666D01*
X147015119Y-85704523D01*
X146919880Y-85799761D01*
X146777023Y-85847380D01*
X146681785Y-85847380D01*
X148015119Y-85847380D02*
X147538928Y-85847380D01*
X147538928Y-84847380D01*
X148919880Y-85752142D02*
X148872261Y-85799761D01*
X148729404Y-85847380D01*
X148634166Y-85847380D01*
X148491309Y-85799761D01*
X148396071Y-85704523D01*
X148348452Y-85609285D01*
X148300833Y-85418809D01*
X148300833Y-85275952D01*
X148348452Y-85085476D01*
X148396071Y-84990238D01*
X148491309Y-84895000D01*
X148634166Y-84847380D01*
X148729404Y-84847380D01*
X148872261Y-84895000D01*
X148919880Y-84942619D01*
D10*
%TO.C,J7*%
X155730000Y-92270000D02*
X155730000Y-91000000D01*
X157000000Y-92270000D02*
X155730000Y-92270000D01*
X170080000Y-89957071D02*
X170080000Y-89502929D01*
X169320000Y-89957071D02*
X169320000Y-89502929D01*
X170080000Y-87417071D02*
X170080000Y-87020000D01*
X169320000Y-87417071D02*
X169320000Y-87020000D01*
X170080000Y-78360000D02*
X170080000Y-84360000D01*
X169320000Y-78360000D02*
X170080000Y-78360000D01*
X169320000Y-84360000D02*
X169320000Y-78360000D01*
X168430000Y-87020000D02*
X168430000Y-84360000D01*
X167540000Y-89957071D02*
X167540000Y-89502929D01*
X166780000Y-89957071D02*
X166780000Y-89502929D01*
X167540000Y-87417071D02*
X167540000Y-87020000D01*
X166780000Y-87417071D02*
X166780000Y-87020000D01*
X167540000Y-78360000D02*
X167540000Y-84360000D01*
X166780000Y-78360000D02*
X167540000Y-78360000D01*
X166780000Y-84360000D02*
X166780000Y-78360000D01*
X165890000Y-87020000D02*
X165890000Y-84360000D01*
X165000000Y-89957071D02*
X165000000Y-89502929D01*
X164240000Y-89957071D02*
X164240000Y-89502929D01*
X165000000Y-87417071D02*
X165000000Y-87020000D01*
X164240000Y-87417071D02*
X164240000Y-87020000D01*
X165000000Y-78360000D02*
X165000000Y-84360000D01*
X164240000Y-78360000D02*
X165000000Y-78360000D01*
X164240000Y-84360000D02*
X164240000Y-78360000D01*
X163350000Y-87020000D02*
X163350000Y-84360000D01*
X162460000Y-89957071D02*
X162460000Y-89502929D01*
X161700000Y-89957071D02*
X161700000Y-89502929D01*
X162460000Y-87417071D02*
X162460000Y-87020000D01*
X161700000Y-87417071D02*
X161700000Y-87020000D01*
X162460000Y-78360000D02*
X162460000Y-84360000D01*
X161700000Y-78360000D02*
X162460000Y-78360000D01*
X161700000Y-84360000D02*
X161700000Y-78360000D01*
X160810000Y-87020000D02*
X160810000Y-84360000D01*
X159920000Y-89957071D02*
X159920000Y-89502929D01*
X159160000Y-89957071D02*
X159160000Y-89502929D01*
X159920000Y-87417071D02*
X159920000Y-87020000D01*
X159160000Y-87417071D02*
X159160000Y-87020000D01*
X159920000Y-78360000D02*
X159920000Y-84360000D01*
X159160000Y-78360000D02*
X159920000Y-78360000D01*
X159160000Y-84360000D02*
X159160000Y-78360000D01*
X158270000Y-87020000D02*
X158270000Y-84360000D01*
X157380000Y-89890000D02*
X157380000Y-89502929D01*
X156620000Y-89890000D02*
X156620000Y-89502929D01*
X157380000Y-87417071D02*
X157380000Y-87020000D01*
X156620000Y-87417071D02*
X156620000Y-87020000D01*
X157280000Y-84360000D02*
X157280000Y-78360000D01*
X157160000Y-84360000D02*
X157160000Y-78360000D01*
X157040000Y-84360000D02*
X157040000Y-78360000D01*
X156920000Y-84360000D02*
X156920000Y-78360000D01*
X156800000Y-84360000D02*
X156800000Y-78360000D01*
X156680000Y-84360000D02*
X156680000Y-78360000D01*
X157380000Y-78360000D02*
X157380000Y-84360000D01*
X156620000Y-78360000D02*
X157380000Y-78360000D01*
X156620000Y-84360000D02*
X156620000Y-78360000D01*
X155670000Y-84360000D02*
X155670000Y-87020000D01*
X171030000Y-84360000D02*
X155670000Y-84360000D01*
X171030000Y-87020000D02*
X171030000Y-84360000D01*
X155670000Y-87020000D02*
X171030000Y-87020000D01*
%TO.C,J6*%
X152060000Y-87110000D02*
X136060000Y-87110000D01*
X136060000Y-87110000D02*
X136060000Y-83690000D01*
X136060000Y-83690000D02*
X137110000Y-83690000D01*
X137110000Y-83690000D02*
X137110000Y-77490000D01*
X137110000Y-77490000D02*
X151010000Y-77490000D01*
X151010000Y-77490000D02*
X151010000Y-83690000D01*
X151010000Y-83690000D02*
X152060000Y-83690000D01*
X152060000Y-83690000D02*
X152060000Y-87110000D01*
X150820000Y-77490000D02*
X150820000Y-75990000D01*
X150820000Y-75990000D02*
X149180000Y-75990000D01*
X149180000Y-75990000D02*
X149180000Y-77490000D01*
X146860000Y-77490000D02*
X146860000Y-75990000D01*
X146860000Y-75990000D02*
X145220000Y-75990000D01*
X145220000Y-75990000D02*
X145220000Y-77490000D01*
X142900000Y-77490000D02*
X142900000Y-75990000D01*
X142900000Y-75990000D02*
X141260000Y-75990000D01*
X141260000Y-75990000D02*
X141260000Y-77490000D01*
X138940000Y-77490000D02*
X138940000Y-75990000D01*
X138940000Y-75990000D02*
X137300000Y-75990000D01*
X137300000Y-75990000D02*
X137300000Y-77490000D01*
X150000000Y-92610000D02*
X151610000Y-92610000D01*
X151610000Y-92610000D02*
X151610000Y-91000000D01*
%TD*%
M02*
