%TF.GenerationSoftware,KiCad,Pcbnew,(5.1.9-0-10_14)*%
%TF.CreationDate,2021-03-07T13:53:49+01:00*%
%TF.ProjectId,ADC Piggy Board,41444320-5069-4676-9779-20426f617264,rev?*%
%TF.SameCoordinates,Original*%
%TF.FileFunction,Copper,L1,Top*%
%TF.FilePolarity,Positive*%
%FSLAX46Y46*%
G04 Gerber Fmt 4.6, Leading zero omitted, Abs format (unit mm)*
G04 Created by KiCad (PCBNEW (5.1.9-0-10_14)) date 2021-03-07 13:53:49*
%MOMM*%
%LPD*%
G01*
G04 APERTURE LIST*
%TA.AperFunction,ComponentPad*%
%ADD10O,1.700000X1.700000*%
%TD*%
%TA.AperFunction,ComponentPad*%
%ADD11R,1.700000X1.700000*%
%TD*%
%TA.AperFunction,ComponentPad*%
%ADD12C,2.700000*%
%TD*%
%TA.AperFunction,ComponentPad*%
%ADD13C,5.600000*%
%TD*%
%TA.AperFunction,ViaPad*%
%ADD14C,0.900000*%
%TD*%
%TA.AperFunction,Conductor*%
%ADD15C,0.127000*%
%TD*%
%TA.AperFunction,Conductor*%
%ADD16C,0.200000*%
%TD*%
%TA.AperFunction,Conductor*%
%ADD17C,0.600000*%
%TD*%
%TA.AperFunction,Conductor*%
%ADD18C,0.254000*%
%TD*%
%TA.AperFunction,Conductor*%
%ADD19C,0.100000*%
%TD*%
G04 APERTURE END LIST*
D10*
%TO.P,J7,12*%
%TO.N,/SCL*%
X169700000Y-88460000D03*
%TO.P,J7,11*%
%TO.N,/MCLK*%
X169700000Y-91000000D03*
%TO.P,J7,10*%
%TO.N,/SDA*%
X167160000Y-88460000D03*
%TO.P,J7,9*%
%TO.N,/LRCK*%
X167160000Y-91000000D03*
%TO.P,J7,8*%
%TO.N,/IRQ*%
X164620000Y-88460000D03*
%TO.P,J7,7*%
%TO.N,/BCLK*%
X164620000Y-91000000D03*
%TO.P,J7,6*%
%TO.N,/Mute*%
X162080000Y-88460000D03*
%TO.P,J7,5*%
%TO.N,/DATA*%
X162080000Y-91000000D03*
%TO.P,J7,4*%
%TO.N,GND*%
X159540000Y-88460000D03*
%TO.P,J7,3*%
X159540000Y-91000000D03*
%TO.P,J7,2*%
%TO.N,+3V3*%
X157000000Y-88460000D03*
D11*
%TO.P,J7,1*%
X157000000Y-91000000D03*
%TD*%
D10*
%TO.P,J1,8*%
%TO.N,GND*%
X165620000Y-53710000D03*
%TO.P,J1,7*%
%TO.N,/MCLK*%
X165620000Y-56250000D03*
%TO.P,J1,6*%
%TO.N,GND*%
X163080000Y-53710000D03*
%TO.P,J1,5*%
%TO.N,/BCLK*%
X163080000Y-56250000D03*
%TO.P,J1,4*%
%TO.N,GND*%
X160540000Y-53710000D03*
%TO.P,J1,3*%
%TO.N,/DATA*%
X160540000Y-56250000D03*
%TO.P,J1,2*%
%TO.N,GND*%
X158000000Y-53710000D03*
D11*
%TO.P,J1,1*%
%TO.N,/LRCK*%
X158000000Y-56250000D03*
%TD*%
D12*
%TO.P,J6,4*%
%TO.N,+5VD*%
X138120000Y-91000000D03*
%TO.P,J6,3*%
%TO.N,GND*%
X142080000Y-91000000D03*
%TO.P,J6,2*%
%TO.N,VEE*%
X146040000Y-91000000D03*
%TO.P,J6,1*%
%TO.N,VCC*%
%TA.AperFunction,ComponentPad*%
G36*
G01*
X151350000Y-89900001D02*
X151350000Y-92099999D01*
G75*
G02*
X151099999Y-92350000I-250001J0D01*
G01*
X148900001Y-92350000D01*
G75*
G02*
X148650000Y-92099999I0J250001D01*
G01*
X148650000Y-89900001D01*
G75*
G02*
X148900001Y-89650000I250001J0D01*
G01*
X151099999Y-89650000D01*
G75*
G02*
X151350000Y-89900001I0J-250001D01*
G01*
G37*
%TD.AperFunction*%
%TD*%
D13*
%TO.P,H2,1*%
%TO.N,Earth*%
X171000000Y-54000000D03*
%TD*%
%TO.P,H1,1*%
%TO.N,Earth*%
X129000000Y-54000000D03*
%TD*%
D10*
%TO.P,J4,8*%
%TO.N,Net-(J4-Pad8)*%
X127200000Y-137780000D03*
%TO.P,J4,7*%
%TO.N,Net-(J4-Pad7)*%
X127200000Y-135240000D03*
%TO.P,J4,6*%
%TO.N,GND*%
X127200000Y-132700000D03*
%TO.P,J4,5*%
%TO.N,VEE*%
X127200000Y-130160000D03*
%TO.P,J4,4*%
%TO.N,VCC*%
X127200000Y-127620000D03*
%TO.P,J4,3*%
%TO.N,GND*%
X127200000Y-125080000D03*
%TO.P,J4,2*%
%TO.N,Net-(J4-Pad2)*%
X127200000Y-122540000D03*
D11*
%TO.P,J4,1*%
%TO.N,GND*%
X127200000Y-120000000D03*
%TD*%
D10*
%TO.P,J3,10*%
%TO.N,Net-(J3-Pad10)*%
X172800000Y-137780000D03*
%TO.P,J3,9*%
%TO.N,Net-(J3-Pad9)*%
X172800000Y-135240000D03*
%TO.P,J3,8*%
%TO.N,GND*%
X172800000Y-132700000D03*
%TO.P,J3,7*%
%TO.N,/SCL*%
X172800000Y-130160000D03*
%TO.P,J3,6*%
%TO.N,/SDA*%
X172800000Y-127620000D03*
%TO.P,J3,5*%
%TO.N,Net-(J3-Pad5)*%
X172800000Y-125080000D03*
%TO.P,J3,4*%
%TO.N,Net-(J3-Pad4)*%
X172800000Y-122540000D03*
%TO.P,J3,3*%
%TO.N,GND*%
X172800000Y-120000000D03*
%TO.P,J3,2*%
%TO.N,+5VD*%
X172800000Y-117460000D03*
D11*
%TO.P,J3,1*%
%TO.N,GND*%
X172800000Y-114920000D03*
%TD*%
D14*
%TO.N,VCC*%
X151270000Y-105715000D03*
X151270000Y-104445000D03*
X150000000Y-104445000D03*
X148730000Y-104445000D03*
X148730000Y-105715000D03*
X150000000Y-105715000D03*
X140792500Y-105715000D03*
X143332500Y-104445000D03*
X143332500Y-105715000D03*
X142062500Y-105715000D03*
X142062500Y-104445000D03*
X140792500Y-104445000D03*
%TO.N,+5VD*%
X136982500Y-116827500D03*
X136982500Y-118097500D03*
X139522500Y-116827500D03*
X139522500Y-118097500D03*
X138252500Y-118097500D03*
X138252500Y-116827500D03*
%TD*%
D15*
%TO.N,Earth*%
X171000000Y-54000000D02*
X174000000Y-51000000D01*
D16*
%TO.N,/DATA*%
X162080000Y-91000000D02*
X163128750Y-89951250D01*
X163128750Y-89951250D02*
X163240000Y-89840000D01*
X163335000Y-89745000D02*
X162080000Y-91000000D01*
X163335000Y-88887500D02*
X163335000Y-89745000D01*
X163335000Y-88887500D02*
X163335000Y-71617500D01*
X163335000Y-71617500D02*
X163335000Y-60312500D01*
X163335000Y-60312500D02*
X160540000Y-57517500D01*
X160540000Y-57517500D02*
X160540000Y-56250000D01*
%TO.N,/BCLK*%
X164620000Y-91000000D02*
X165875000Y-89745000D01*
X165875000Y-60312500D02*
X163080000Y-57517500D01*
X165875000Y-89745000D02*
X165875000Y-60312500D01*
X163080000Y-57517500D02*
X163080000Y-56250000D01*
%TO.N,/LRCK*%
X167160000Y-91000000D02*
X167160000Y-92047500D01*
X167160000Y-92047500D02*
X166827500Y-92380000D01*
X166827500Y-92380000D02*
X161112500Y-92380000D01*
X161112500Y-92380000D02*
X160795000Y-92062500D01*
X160795000Y-92062500D02*
X160795000Y-60312500D01*
X160795000Y-60312500D02*
X158000000Y-57517500D01*
X158000000Y-56250000D02*
X158000000Y-57517500D01*
%TO.N,/MCLK*%
X168415000Y-60312500D02*
X165620000Y-57517500D01*
X165620000Y-57517500D02*
X165620000Y-56250000D01*
X168415000Y-89715000D02*
X168415000Y-60312500D01*
X169700000Y-91000000D02*
X168415000Y-89715000D01*
%TO.N,/SCL*%
X174130000Y-126670000D02*
X174130000Y-129845000D01*
X173812500Y-126352500D02*
X174130000Y-126670000D01*
X174130000Y-129845000D02*
X173815000Y-130160000D01*
X169685000Y-126352500D02*
X173812500Y-126352500D01*
X169700000Y-88460000D02*
X170955000Y-89715000D01*
X169050000Y-125717500D02*
X169685000Y-126352500D01*
X170955000Y-91745000D02*
X169050000Y-93650000D01*
X173815000Y-130160000D02*
X172800000Y-130160000D01*
X170955000Y-89715000D02*
X170955000Y-91745000D01*
X169050000Y-93650000D02*
X169050000Y-125717500D01*
%TO.N,/SDA*%
X170000000Y-127620000D02*
X172800000Y-127620000D01*
X168415000Y-126035000D02*
X169367500Y-126987500D01*
X168415000Y-90475000D02*
X168415000Y-126035000D01*
X169050000Y-126670000D02*
X169367500Y-126987500D01*
X167160000Y-89220000D02*
X168415000Y-90475000D01*
X167160000Y-88460000D02*
X167160000Y-89220000D01*
X169367500Y-126987500D02*
X170000000Y-127620000D01*
D17*
%TO.N,+3V3*%
X157000000Y-91000000D02*
X157000000Y-88460000D01*
%TD*%
D18*
%TO.N,Earth*%
X174114994Y-50419222D02*
X174225614Y-50452620D01*
X174327639Y-50506868D01*
X174417179Y-50579895D01*
X174490833Y-50668925D01*
X174545792Y-50770572D01*
X174579960Y-50880949D01*
X174594001Y-51014538D01*
X174594000Y-126542611D01*
X174589902Y-126529102D01*
X174576536Y-126485039D01*
X174531872Y-126401478D01*
X174471764Y-126328236D01*
X174453406Y-126313170D01*
X174169330Y-126029094D01*
X174154264Y-126010736D01*
X174081022Y-125950628D01*
X173997461Y-125905964D01*
X173906792Y-125878460D01*
X173836126Y-125871500D01*
X173812500Y-125869173D01*
X173788874Y-125871500D01*
X173749397Y-125871500D01*
X173756180Y-125864717D01*
X173890898Y-125663097D01*
X173983693Y-125439069D01*
X174031000Y-125201243D01*
X174031000Y-124958757D01*
X173983693Y-124720931D01*
X173890898Y-124496903D01*
X173756180Y-124295283D01*
X173584717Y-124123820D01*
X173383097Y-123989102D01*
X173159069Y-123896307D01*
X173127000Y-123889928D01*
X173127000Y-123730072D01*
X173159069Y-123723693D01*
X173383097Y-123630898D01*
X173584717Y-123496180D01*
X173756180Y-123324717D01*
X173890898Y-123123097D01*
X173983693Y-122899069D01*
X174031000Y-122661243D01*
X174031000Y-122418757D01*
X173983693Y-122180931D01*
X173890898Y-121956903D01*
X173756180Y-121755283D01*
X173584717Y-121583820D01*
X173383097Y-121449102D01*
X173159069Y-121356307D01*
X173127000Y-121349928D01*
X173127000Y-121190072D01*
X173159069Y-121183693D01*
X173383097Y-121090898D01*
X173584717Y-120956180D01*
X173756180Y-120784717D01*
X173890898Y-120583097D01*
X173983693Y-120359069D01*
X174031000Y-120121243D01*
X174031000Y-119878757D01*
X173983693Y-119640931D01*
X173890898Y-119416903D01*
X173756180Y-119215283D01*
X173584717Y-119043820D01*
X173383097Y-118909102D01*
X173159069Y-118816307D01*
X173127000Y-118809928D01*
X173127000Y-118650072D01*
X173159069Y-118643693D01*
X173383097Y-118550898D01*
X173584717Y-118416180D01*
X173756180Y-118244717D01*
X173890898Y-118043097D01*
X173983693Y-117819069D01*
X174031000Y-117581243D01*
X174031000Y-117338757D01*
X173983693Y-117100931D01*
X173890898Y-116876903D01*
X173756180Y-116675283D01*
X173584717Y-116503820D01*
X173383097Y-116369102D01*
X173159069Y-116276307D01*
X173127000Y-116269928D01*
X173127000Y-116152843D01*
X173650000Y-116152843D01*
X173724689Y-116145487D01*
X173796508Y-116123701D01*
X173862696Y-116088322D01*
X173920711Y-116040711D01*
X173968322Y-115982696D01*
X174003701Y-115916508D01*
X174025487Y-115844689D01*
X174032843Y-115770000D01*
X174032843Y-114070000D01*
X174025487Y-113995311D01*
X174003701Y-113923492D01*
X173968322Y-113857304D01*
X173920711Y-113799289D01*
X173862696Y-113751678D01*
X173796508Y-113716299D01*
X173724689Y-113694513D01*
X173650000Y-113687157D01*
X173127000Y-113687157D01*
X173127000Y-52508000D01*
X173125913Y-52491423D01*
X173108603Y-52359943D01*
X173100023Y-52327920D01*
X173049274Y-52205400D01*
X173032697Y-52176687D01*
X172951966Y-52071477D01*
X172928523Y-52048034D01*
X172823313Y-51967303D01*
X172794600Y-51950726D01*
X172672080Y-51899977D01*
X172640057Y-51891397D01*
X172508577Y-51874087D01*
X172492000Y-51873000D01*
X136508000Y-51873000D01*
X136491423Y-51874087D01*
X136359943Y-51891397D01*
X136327920Y-51899977D01*
X136205400Y-51950726D01*
X136176687Y-51967303D01*
X136071477Y-52048034D01*
X136048034Y-52071477D01*
X135967303Y-52176687D01*
X135950726Y-52205400D01*
X135899977Y-52327920D01*
X135891397Y-52359943D01*
X135874087Y-52491423D01*
X135873000Y-52508000D01*
X135873000Y-86483679D01*
X135858960Y-86590325D01*
X135821007Y-86681951D01*
X135760632Y-86760632D01*
X135681951Y-86821007D01*
X135590325Y-86858960D01*
X135483679Y-86873000D01*
X127508000Y-86873000D01*
X127491423Y-86874087D01*
X127359943Y-86891397D01*
X127327920Y-86899977D01*
X127205400Y-86950726D01*
X127176687Y-86967303D01*
X127071477Y-87048034D01*
X127048034Y-87071477D01*
X126967303Y-87176687D01*
X126950726Y-87205400D01*
X126899977Y-87327920D01*
X126891397Y-87359943D01*
X126874087Y-87491423D01*
X126873000Y-87508000D01*
X126873000Y-118767157D01*
X126350000Y-118767157D01*
X126275311Y-118774513D01*
X126203492Y-118796299D01*
X126137304Y-118831678D01*
X126079289Y-118879289D01*
X126031678Y-118937304D01*
X125996299Y-119003492D01*
X125974513Y-119075311D01*
X125967157Y-119150000D01*
X125967157Y-120850000D01*
X125974513Y-120924689D01*
X125996299Y-120996508D01*
X126031678Y-121062696D01*
X126079289Y-121120711D01*
X126137304Y-121168322D01*
X126203492Y-121203701D01*
X126275311Y-121225487D01*
X126350000Y-121232843D01*
X126873000Y-121232843D01*
X126873000Y-121349928D01*
X126840931Y-121356307D01*
X126616903Y-121449102D01*
X126415283Y-121583820D01*
X126243820Y-121755283D01*
X126109102Y-121956903D01*
X126016307Y-122180931D01*
X125969000Y-122418757D01*
X125969000Y-122661243D01*
X126016307Y-122899069D01*
X126109102Y-123123097D01*
X126243820Y-123324717D01*
X126415283Y-123496180D01*
X126616903Y-123630898D01*
X126840931Y-123723693D01*
X126873000Y-123730072D01*
X126873000Y-123889928D01*
X126840931Y-123896307D01*
X126616903Y-123989102D01*
X126415283Y-124123820D01*
X126243820Y-124295283D01*
X126109102Y-124496903D01*
X126016307Y-124720931D01*
X125969000Y-124958757D01*
X125969000Y-125201243D01*
X126016307Y-125439069D01*
X126109102Y-125663097D01*
X126243820Y-125864717D01*
X126352288Y-125973185D01*
X126328269Y-125974760D01*
X126196789Y-125992070D01*
X126100719Y-126017811D01*
X125978199Y-126068560D01*
X125892061Y-126118292D01*
X125786851Y-126199023D01*
X125716523Y-126269351D01*
X125635792Y-126374561D01*
X125586060Y-126460699D01*
X125535311Y-126583219D01*
X125509570Y-126679289D01*
X125492260Y-126810769D01*
X125489000Y-126860500D01*
X125489000Y-128384500D01*
X125492260Y-128434231D01*
X125509570Y-128565711D01*
X125535311Y-128661781D01*
X125586060Y-128784301D01*
X125596311Y-128802057D01*
X125572545Y-128837626D01*
X125537337Y-128903494D01*
X125515656Y-128974967D01*
X125496321Y-129072169D01*
X125489000Y-129146500D01*
X125489000Y-131178500D01*
X125496321Y-131252831D01*
X125515656Y-131350033D01*
X125537337Y-131421505D01*
X125572545Y-131487374D01*
X125627605Y-131569777D01*
X125674987Y-131627513D01*
X125732723Y-131674895D01*
X125815126Y-131729955D01*
X125880994Y-131765163D01*
X125952467Y-131786844D01*
X126049669Y-131806179D01*
X126124000Y-131813500D01*
X126345603Y-131813500D01*
X126243820Y-131915283D01*
X126109102Y-132116903D01*
X126016307Y-132340931D01*
X125969000Y-132578757D01*
X125969000Y-132821243D01*
X126016307Y-133059069D01*
X126109102Y-133283097D01*
X126243820Y-133484717D01*
X126415283Y-133656180D01*
X126616903Y-133790898D01*
X126840931Y-133883693D01*
X126873000Y-133890072D01*
X126873000Y-134049928D01*
X126840931Y-134056307D01*
X126616903Y-134149102D01*
X126415283Y-134283820D01*
X126243820Y-134455283D01*
X126109102Y-134656903D01*
X126016307Y-134880931D01*
X125969000Y-135118757D01*
X125969000Y-135361243D01*
X126016307Y-135599069D01*
X126109102Y-135823097D01*
X126243820Y-136024717D01*
X126415283Y-136196180D01*
X126616903Y-136330898D01*
X126840931Y-136423693D01*
X126873000Y-136430072D01*
X126873000Y-136589928D01*
X126840931Y-136596307D01*
X126616903Y-136689102D01*
X126415283Y-136823820D01*
X126243820Y-136995283D01*
X126109102Y-137196903D01*
X126016307Y-137420931D01*
X125969000Y-137658757D01*
X125969000Y-137901243D01*
X126016307Y-138139069D01*
X126109102Y-138363097D01*
X126243820Y-138564717D01*
X126415283Y-138736180D01*
X126616903Y-138870898D01*
X126840931Y-138963693D01*
X126873000Y-138970072D01*
X126873000Y-139483679D01*
X126858960Y-139590325D01*
X126857438Y-139594000D01*
X125519851Y-139594000D01*
X125482122Y-139590301D01*
X125464921Y-139585107D01*
X125449056Y-139576672D01*
X125435140Y-139565322D01*
X125423682Y-139551472D01*
X125415139Y-139535672D01*
X125409827Y-139518511D01*
X125406000Y-139482099D01*
X125406000Y-85519853D01*
X125409700Y-85482119D01*
X125414892Y-85464922D01*
X125423328Y-85449057D01*
X125434680Y-85435139D01*
X125448528Y-85423683D01*
X125464330Y-85415139D01*
X125481489Y-85409827D01*
X125517901Y-85406000D01*
X134519941Y-85406000D01*
X134537244Y-85404296D01*
X134540287Y-85404317D01*
X134545929Y-85403764D01*
X134642977Y-85393564D01*
X134679043Y-85386161D01*
X134715169Y-85379269D01*
X134720596Y-85377631D01*
X134813815Y-85348775D01*
X134847762Y-85334505D01*
X134881858Y-85320729D01*
X134886853Y-85318074D01*
X134886861Y-85318070D01*
X134886868Y-85318065D01*
X134972701Y-85271656D01*
X135003242Y-85251056D01*
X135033997Y-85230930D01*
X135038391Y-85227347D01*
X135113580Y-85165145D01*
X135139548Y-85138995D01*
X135165796Y-85113291D01*
X135169405Y-85108929D01*
X135169413Y-85108921D01*
X135169419Y-85108912D01*
X135231086Y-85033303D01*
X135251459Y-85002640D01*
X135272242Y-84972286D01*
X135274939Y-84967299D01*
X135320751Y-84881139D01*
X135334785Y-84847089D01*
X135349267Y-84813299D01*
X135350944Y-84807884D01*
X135379149Y-84714466D01*
X135386295Y-84678375D01*
X135393948Y-84642372D01*
X135394540Y-84636734D01*
X135404063Y-84539617D01*
X135404063Y-84539607D01*
X135406000Y-84519941D01*
X135406000Y-62980059D01*
X135404296Y-62962756D01*
X135404317Y-62959714D01*
X135403764Y-62954072D01*
X135393564Y-62857023D01*
X135386161Y-62820957D01*
X135379269Y-62784831D01*
X135377631Y-62779404D01*
X135348775Y-62686185D01*
X135334505Y-62652238D01*
X135320729Y-62618142D01*
X135318068Y-62613136D01*
X135271655Y-62527299D01*
X135251078Y-62496793D01*
X135230930Y-62466003D01*
X135227347Y-62461609D01*
X135165145Y-62386420D01*
X135138995Y-62360452D01*
X135113291Y-62334204D01*
X135108929Y-62330595D01*
X135108921Y-62330587D01*
X135108912Y-62330581D01*
X135033302Y-62268914D01*
X135002658Y-62248553D01*
X134972286Y-62227758D01*
X134967299Y-62225061D01*
X134881138Y-62179249D01*
X134847102Y-62165221D01*
X134813299Y-62150733D01*
X134807884Y-62149056D01*
X134714466Y-62120851D01*
X134678345Y-62113699D01*
X134642372Y-62106053D01*
X134636743Y-62105461D01*
X134636738Y-62105460D01*
X134636734Y-62105460D01*
X134539740Y-62095950D01*
X134519941Y-62094000D01*
X125519851Y-62094000D01*
X125482122Y-62090301D01*
X125464921Y-62085107D01*
X125449056Y-62076672D01*
X125435140Y-62065322D01*
X125423682Y-62051472D01*
X125415139Y-62035672D01*
X125409827Y-62018511D01*
X125406000Y-61982099D01*
X125406000Y-51019854D01*
X125419222Y-50885006D01*
X125452620Y-50774386D01*
X125506868Y-50672361D01*
X125579895Y-50582821D01*
X125668925Y-50509167D01*
X125770572Y-50454208D01*
X125880949Y-50420040D01*
X126014528Y-50406000D01*
X173980146Y-50406000D01*
X174114994Y-50419222D01*
%TA.AperFunction,Conductor*%
D19*
G36*
X174114994Y-50419222D02*
G01*
X174225614Y-50452620D01*
X174327639Y-50506868D01*
X174417179Y-50579895D01*
X174490833Y-50668925D01*
X174545792Y-50770572D01*
X174579960Y-50880949D01*
X174594001Y-51014538D01*
X174594000Y-126542611D01*
X174589902Y-126529102D01*
X174576536Y-126485039D01*
X174531872Y-126401478D01*
X174471764Y-126328236D01*
X174453406Y-126313170D01*
X174169330Y-126029094D01*
X174154264Y-126010736D01*
X174081022Y-125950628D01*
X173997461Y-125905964D01*
X173906792Y-125878460D01*
X173836126Y-125871500D01*
X173812500Y-125869173D01*
X173788874Y-125871500D01*
X173749397Y-125871500D01*
X173756180Y-125864717D01*
X173890898Y-125663097D01*
X173983693Y-125439069D01*
X174031000Y-125201243D01*
X174031000Y-124958757D01*
X173983693Y-124720931D01*
X173890898Y-124496903D01*
X173756180Y-124295283D01*
X173584717Y-124123820D01*
X173383097Y-123989102D01*
X173159069Y-123896307D01*
X173127000Y-123889928D01*
X173127000Y-123730072D01*
X173159069Y-123723693D01*
X173383097Y-123630898D01*
X173584717Y-123496180D01*
X173756180Y-123324717D01*
X173890898Y-123123097D01*
X173983693Y-122899069D01*
X174031000Y-122661243D01*
X174031000Y-122418757D01*
X173983693Y-122180931D01*
X173890898Y-121956903D01*
X173756180Y-121755283D01*
X173584717Y-121583820D01*
X173383097Y-121449102D01*
X173159069Y-121356307D01*
X173127000Y-121349928D01*
X173127000Y-121190072D01*
X173159069Y-121183693D01*
X173383097Y-121090898D01*
X173584717Y-120956180D01*
X173756180Y-120784717D01*
X173890898Y-120583097D01*
X173983693Y-120359069D01*
X174031000Y-120121243D01*
X174031000Y-119878757D01*
X173983693Y-119640931D01*
X173890898Y-119416903D01*
X173756180Y-119215283D01*
X173584717Y-119043820D01*
X173383097Y-118909102D01*
X173159069Y-118816307D01*
X173127000Y-118809928D01*
X173127000Y-118650072D01*
X173159069Y-118643693D01*
X173383097Y-118550898D01*
X173584717Y-118416180D01*
X173756180Y-118244717D01*
X173890898Y-118043097D01*
X173983693Y-117819069D01*
X174031000Y-117581243D01*
X174031000Y-117338757D01*
X173983693Y-117100931D01*
X173890898Y-116876903D01*
X173756180Y-116675283D01*
X173584717Y-116503820D01*
X173383097Y-116369102D01*
X173159069Y-116276307D01*
X173127000Y-116269928D01*
X173127000Y-116152843D01*
X173650000Y-116152843D01*
X173724689Y-116145487D01*
X173796508Y-116123701D01*
X173862696Y-116088322D01*
X173920711Y-116040711D01*
X173968322Y-115982696D01*
X174003701Y-115916508D01*
X174025487Y-115844689D01*
X174032843Y-115770000D01*
X174032843Y-114070000D01*
X174025487Y-113995311D01*
X174003701Y-113923492D01*
X173968322Y-113857304D01*
X173920711Y-113799289D01*
X173862696Y-113751678D01*
X173796508Y-113716299D01*
X173724689Y-113694513D01*
X173650000Y-113687157D01*
X173127000Y-113687157D01*
X173127000Y-52508000D01*
X173125913Y-52491423D01*
X173108603Y-52359943D01*
X173100023Y-52327920D01*
X173049274Y-52205400D01*
X173032697Y-52176687D01*
X172951966Y-52071477D01*
X172928523Y-52048034D01*
X172823313Y-51967303D01*
X172794600Y-51950726D01*
X172672080Y-51899977D01*
X172640057Y-51891397D01*
X172508577Y-51874087D01*
X172492000Y-51873000D01*
X136508000Y-51873000D01*
X136491423Y-51874087D01*
X136359943Y-51891397D01*
X136327920Y-51899977D01*
X136205400Y-51950726D01*
X136176687Y-51967303D01*
X136071477Y-52048034D01*
X136048034Y-52071477D01*
X135967303Y-52176687D01*
X135950726Y-52205400D01*
X135899977Y-52327920D01*
X135891397Y-52359943D01*
X135874087Y-52491423D01*
X135873000Y-52508000D01*
X135873000Y-86483679D01*
X135858960Y-86590325D01*
X135821007Y-86681951D01*
X135760632Y-86760632D01*
X135681951Y-86821007D01*
X135590325Y-86858960D01*
X135483679Y-86873000D01*
X127508000Y-86873000D01*
X127491423Y-86874087D01*
X127359943Y-86891397D01*
X127327920Y-86899977D01*
X127205400Y-86950726D01*
X127176687Y-86967303D01*
X127071477Y-87048034D01*
X127048034Y-87071477D01*
X126967303Y-87176687D01*
X126950726Y-87205400D01*
X126899977Y-87327920D01*
X126891397Y-87359943D01*
X126874087Y-87491423D01*
X126873000Y-87508000D01*
X126873000Y-118767157D01*
X126350000Y-118767157D01*
X126275311Y-118774513D01*
X126203492Y-118796299D01*
X126137304Y-118831678D01*
X126079289Y-118879289D01*
X126031678Y-118937304D01*
X125996299Y-119003492D01*
X125974513Y-119075311D01*
X125967157Y-119150000D01*
X125967157Y-120850000D01*
X125974513Y-120924689D01*
X125996299Y-120996508D01*
X126031678Y-121062696D01*
X126079289Y-121120711D01*
X126137304Y-121168322D01*
X126203492Y-121203701D01*
X126275311Y-121225487D01*
X126350000Y-121232843D01*
X126873000Y-121232843D01*
X126873000Y-121349928D01*
X126840931Y-121356307D01*
X126616903Y-121449102D01*
X126415283Y-121583820D01*
X126243820Y-121755283D01*
X126109102Y-121956903D01*
X126016307Y-122180931D01*
X125969000Y-122418757D01*
X125969000Y-122661243D01*
X126016307Y-122899069D01*
X126109102Y-123123097D01*
X126243820Y-123324717D01*
X126415283Y-123496180D01*
X126616903Y-123630898D01*
X126840931Y-123723693D01*
X126873000Y-123730072D01*
X126873000Y-123889928D01*
X126840931Y-123896307D01*
X126616903Y-123989102D01*
X126415283Y-124123820D01*
X126243820Y-124295283D01*
X126109102Y-124496903D01*
X126016307Y-124720931D01*
X125969000Y-124958757D01*
X125969000Y-125201243D01*
X126016307Y-125439069D01*
X126109102Y-125663097D01*
X126243820Y-125864717D01*
X126352288Y-125973185D01*
X126328269Y-125974760D01*
X126196789Y-125992070D01*
X126100719Y-126017811D01*
X125978199Y-126068560D01*
X125892061Y-126118292D01*
X125786851Y-126199023D01*
X125716523Y-126269351D01*
X125635792Y-126374561D01*
X125586060Y-126460699D01*
X125535311Y-126583219D01*
X125509570Y-126679289D01*
X125492260Y-126810769D01*
X125489000Y-126860500D01*
X125489000Y-128384500D01*
X125492260Y-128434231D01*
X125509570Y-128565711D01*
X125535311Y-128661781D01*
X125586060Y-128784301D01*
X125596311Y-128802057D01*
X125572545Y-128837626D01*
X125537337Y-128903494D01*
X125515656Y-128974967D01*
X125496321Y-129072169D01*
X125489000Y-129146500D01*
X125489000Y-131178500D01*
X125496321Y-131252831D01*
X125515656Y-131350033D01*
X125537337Y-131421505D01*
X125572545Y-131487374D01*
X125627605Y-131569777D01*
X125674987Y-131627513D01*
X125732723Y-131674895D01*
X125815126Y-131729955D01*
X125880994Y-131765163D01*
X125952467Y-131786844D01*
X126049669Y-131806179D01*
X126124000Y-131813500D01*
X126345603Y-131813500D01*
X126243820Y-131915283D01*
X126109102Y-132116903D01*
X126016307Y-132340931D01*
X125969000Y-132578757D01*
X125969000Y-132821243D01*
X126016307Y-133059069D01*
X126109102Y-133283097D01*
X126243820Y-133484717D01*
X126415283Y-133656180D01*
X126616903Y-133790898D01*
X126840931Y-133883693D01*
X126873000Y-133890072D01*
X126873000Y-134049928D01*
X126840931Y-134056307D01*
X126616903Y-134149102D01*
X126415283Y-134283820D01*
X126243820Y-134455283D01*
X126109102Y-134656903D01*
X126016307Y-134880931D01*
X125969000Y-135118757D01*
X125969000Y-135361243D01*
X126016307Y-135599069D01*
X126109102Y-135823097D01*
X126243820Y-136024717D01*
X126415283Y-136196180D01*
X126616903Y-136330898D01*
X126840931Y-136423693D01*
X126873000Y-136430072D01*
X126873000Y-136589928D01*
X126840931Y-136596307D01*
X126616903Y-136689102D01*
X126415283Y-136823820D01*
X126243820Y-136995283D01*
X126109102Y-137196903D01*
X126016307Y-137420931D01*
X125969000Y-137658757D01*
X125969000Y-137901243D01*
X126016307Y-138139069D01*
X126109102Y-138363097D01*
X126243820Y-138564717D01*
X126415283Y-138736180D01*
X126616903Y-138870898D01*
X126840931Y-138963693D01*
X126873000Y-138970072D01*
X126873000Y-139483679D01*
X126858960Y-139590325D01*
X126857438Y-139594000D01*
X125519851Y-139594000D01*
X125482122Y-139590301D01*
X125464921Y-139585107D01*
X125449056Y-139576672D01*
X125435140Y-139565322D01*
X125423682Y-139551472D01*
X125415139Y-139535672D01*
X125409827Y-139518511D01*
X125406000Y-139482099D01*
X125406000Y-85519853D01*
X125409700Y-85482119D01*
X125414892Y-85464922D01*
X125423328Y-85449057D01*
X125434680Y-85435139D01*
X125448528Y-85423683D01*
X125464330Y-85415139D01*
X125481489Y-85409827D01*
X125517901Y-85406000D01*
X134519941Y-85406000D01*
X134537244Y-85404296D01*
X134540287Y-85404317D01*
X134545929Y-85403764D01*
X134642977Y-85393564D01*
X134679043Y-85386161D01*
X134715169Y-85379269D01*
X134720596Y-85377631D01*
X134813815Y-85348775D01*
X134847762Y-85334505D01*
X134881858Y-85320729D01*
X134886853Y-85318074D01*
X134886861Y-85318070D01*
X134886868Y-85318065D01*
X134972701Y-85271656D01*
X135003242Y-85251056D01*
X135033997Y-85230930D01*
X135038391Y-85227347D01*
X135113580Y-85165145D01*
X135139548Y-85138995D01*
X135165796Y-85113291D01*
X135169405Y-85108929D01*
X135169413Y-85108921D01*
X135169419Y-85108912D01*
X135231086Y-85033303D01*
X135251459Y-85002640D01*
X135272242Y-84972286D01*
X135274939Y-84967299D01*
X135320751Y-84881139D01*
X135334785Y-84847089D01*
X135349267Y-84813299D01*
X135350944Y-84807884D01*
X135379149Y-84714466D01*
X135386295Y-84678375D01*
X135393948Y-84642372D01*
X135394540Y-84636734D01*
X135404063Y-84539617D01*
X135404063Y-84539607D01*
X135406000Y-84519941D01*
X135406000Y-62980059D01*
X135404296Y-62962756D01*
X135404317Y-62959714D01*
X135403764Y-62954072D01*
X135393564Y-62857023D01*
X135386161Y-62820957D01*
X135379269Y-62784831D01*
X135377631Y-62779404D01*
X135348775Y-62686185D01*
X135334505Y-62652238D01*
X135320729Y-62618142D01*
X135318068Y-62613136D01*
X135271655Y-62527299D01*
X135251078Y-62496793D01*
X135230930Y-62466003D01*
X135227347Y-62461609D01*
X135165145Y-62386420D01*
X135138995Y-62360452D01*
X135113291Y-62334204D01*
X135108929Y-62330595D01*
X135108921Y-62330587D01*
X135108912Y-62330581D01*
X135033302Y-62268914D01*
X135002658Y-62248553D01*
X134972286Y-62227758D01*
X134967299Y-62225061D01*
X134881138Y-62179249D01*
X134847102Y-62165221D01*
X134813299Y-62150733D01*
X134807884Y-62149056D01*
X134714466Y-62120851D01*
X134678345Y-62113699D01*
X134642372Y-62106053D01*
X134636743Y-62105461D01*
X134636738Y-62105460D01*
X134636734Y-62105460D01*
X134539740Y-62095950D01*
X134519941Y-62094000D01*
X125519851Y-62094000D01*
X125482122Y-62090301D01*
X125464921Y-62085107D01*
X125449056Y-62076672D01*
X125435140Y-62065322D01*
X125423682Y-62051472D01*
X125415139Y-62035672D01*
X125409827Y-62018511D01*
X125406000Y-61982099D01*
X125406000Y-51019854D01*
X125419222Y-50885006D01*
X125452620Y-50774386D01*
X125506868Y-50672361D01*
X125579895Y-50582821D01*
X125668925Y-50509167D01*
X125770572Y-50454208D01*
X125880949Y-50420040D01*
X126014528Y-50406000D01*
X173980146Y-50406000D01*
X174114994Y-50419222D01*
G37*
%TD.AperFunction*%
%TD*%
D18*
%TO.N,GND*%
X168181035Y-52493232D02*
X167941245Y-53072137D01*
X167819000Y-53686699D01*
X167819000Y-54313301D01*
X167941245Y-54927863D01*
X168181035Y-55506768D01*
X168529156Y-56027769D01*
X168972231Y-56470844D01*
X169493232Y-56818965D01*
X170072137Y-57058755D01*
X170686699Y-57181000D01*
X171313301Y-57181000D01*
X171927863Y-57058755D01*
X172506768Y-56818965D01*
X172619000Y-56743974D01*
X172619000Y-116240887D01*
X172440931Y-116276307D01*
X172216903Y-116369102D01*
X172015283Y-116503820D01*
X171843820Y-116675283D01*
X171709102Y-116876903D01*
X171616307Y-117100931D01*
X171569000Y-117338757D01*
X171569000Y-117581243D01*
X171616307Y-117819069D01*
X171709102Y-118043097D01*
X171843820Y-118244717D01*
X172015283Y-118416180D01*
X172216903Y-118550898D01*
X172440931Y-118643693D01*
X172619000Y-118679113D01*
X172619000Y-121320887D01*
X172440931Y-121356307D01*
X172216903Y-121449102D01*
X172015283Y-121583820D01*
X171843820Y-121755283D01*
X171709102Y-121956903D01*
X171616307Y-122180931D01*
X171569000Y-122418757D01*
X171569000Y-122661243D01*
X171616307Y-122899069D01*
X171709102Y-123123097D01*
X171843820Y-123324717D01*
X172015283Y-123496180D01*
X172216903Y-123630898D01*
X172440931Y-123723693D01*
X172619000Y-123759113D01*
X172619000Y-123860887D01*
X172440931Y-123896307D01*
X172216903Y-123989102D01*
X172015283Y-124123820D01*
X171843820Y-124295283D01*
X171709102Y-124496903D01*
X171616307Y-124720931D01*
X171569000Y-124958757D01*
X171569000Y-125201243D01*
X171616307Y-125439069D01*
X171709102Y-125663097D01*
X171843820Y-125864717D01*
X171850603Y-125871500D01*
X169884236Y-125871500D01*
X169531000Y-125518264D01*
X169531000Y-93849236D01*
X171278412Y-92101825D01*
X171296764Y-92086764D01*
X171356872Y-92013522D01*
X171401536Y-91929961D01*
X171429040Y-91839292D01*
X171436000Y-91768626D01*
X171438327Y-91745000D01*
X171436000Y-91721374D01*
X171436000Y-89738625D01*
X171438327Y-89714999D01*
X171429040Y-89620707D01*
X171414106Y-89571478D01*
X171401536Y-89530039D01*
X171356872Y-89446478D01*
X171296764Y-89373236D01*
X171278412Y-89358175D01*
X170841403Y-88921166D01*
X170883693Y-88819069D01*
X170931000Y-88581243D01*
X170931000Y-88338757D01*
X170883693Y-88100931D01*
X170790898Y-87876903D01*
X170656180Y-87675283D01*
X170484717Y-87503820D01*
X170283097Y-87369102D01*
X170059069Y-87276307D01*
X169821243Y-87229000D01*
X169578757Y-87229000D01*
X169340931Y-87276307D01*
X169116903Y-87369102D01*
X168915283Y-87503820D01*
X168896000Y-87523103D01*
X168896000Y-60336126D01*
X168898327Y-60312500D01*
X168889040Y-60218207D01*
X168880696Y-60190703D01*
X168861536Y-60127539D01*
X168816872Y-60043978D01*
X168756764Y-59970736D01*
X168738412Y-59955675D01*
X166146908Y-57364172D01*
X166203097Y-57340898D01*
X166404717Y-57206180D01*
X166576180Y-57034717D01*
X166710898Y-56833097D01*
X166803693Y-56609069D01*
X166851000Y-56371243D01*
X166851000Y-56128757D01*
X166803693Y-55890931D01*
X166710898Y-55666903D01*
X166576180Y-55465283D01*
X166404717Y-55293820D01*
X166203097Y-55159102D01*
X165979069Y-55066307D01*
X165741243Y-55019000D01*
X165498757Y-55019000D01*
X165260931Y-55066307D01*
X165036903Y-55159102D01*
X164835283Y-55293820D01*
X164663820Y-55465283D01*
X164529102Y-55666903D01*
X164436307Y-55890931D01*
X164389000Y-56128757D01*
X164389000Y-56371243D01*
X164436307Y-56609069D01*
X164529102Y-56833097D01*
X164663820Y-57034717D01*
X164835283Y-57206180D01*
X165036903Y-57340898D01*
X165139000Y-57383188D01*
X165139000Y-57493873D01*
X165136673Y-57517500D01*
X165139000Y-57541125D01*
X165145960Y-57611791D01*
X165173464Y-57702460D01*
X165218128Y-57786022D01*
X165278236Y-57859264D01*
X165296594Y-57874330D01*
X167934001Y-60511738D01*
X167934000Y-87496659D01*
X167743097Y-87369102D01*
X167519069Y-87276307D01*
X167281243Y-87229000D01*
X167038757Y-87229000D01*
X166800931Y-87276307D01*
X166576903Y-87369102D01*
X166375283Y-87503820D01*
X166356000Y-87523103D01*
X166356000Y-60336126D01*
X166358327Y-60312500D01*
X166349040Y-60218207D01*
X166340696Y-60190703D01*
X166321536Y-60127539D01*
X166276872Y-60043978D01*
X166216764Y-59970736D01*
X166198412Y-59955675D01*
X163606908Y-57364172D01*
X163663097Y-57340898D01*
X163864717Y-57206180D01*
X164036180Y-57034717D01*
X164170898Y-56833097D01*
X164263693Y-56609069D01*
X164311000Y-56371243D01*
X164311000Y-56128757D01*
X164263693Y-55890931D01*
X164170898Y-55666903D01*
X164036180Y-55465283D01*
X163864717Y-55293820D01*
X163663097Y-55159102D01*
X163439069Y-55066307D01*
X163201243Y-55019000D01*
X162958757Y-55019000D01*
X162720931Y-55066307D01*
X162496903Y-55159102D01*
X162295283Y-55293820D01*
X162123820Y-55465283D01*
X161989102Y-55666903D01*
X161896307Y-55890931D01*
X161849000Y-56128757D01*
X161849000Y-56371243D01*
X161896307Y-56609069D01*
X161989102Y-56833097D01*
X162123820Y-57034717D01*
X162295283Y-57206180D01*
X162496903Y-57340898D01*
X162599000Y-57383188D01*
X162599000Y-57493873D01*
X162596673Y-57517500D01*
X162599000Y-57541125D01*
X162605960Y-57611791D01*
X162633464Y-57702460D01*
X162678128Y-57786022D01*
X162738236Y-57859264D01*
X162756594Y-57874330D01*
X165394001Y-60511738D01*
X165394000Y-87496659D01*
X165203097Y-87369102D01*
X164979069Y-87276307D01*
X164741243Y-87229000D01*
X164498757Y-87229000D01*
X164260931Y-87276307D01*
X164036903Y-87369102D01*
X163835283Y-87503820D01*
X163816000Y-87523103D01*
X163816000Y-60336126D01*
X163818327Y-60312500D01*
X163809040Y-60218207D01*
X163800696Y-60190703D01*
X163781536Y-60127539D01*
X163736872Y-60043978D01*
X163676764Y-59970736D01*
X163658412Y-59955675D01*
X161066908Y-57364172D01*
X161123097Y-57340898D01*
X161324717Y-57206180D01*
X161496180Y-57034717D01*
X161630898Y-56833097D01*
X161723693Y-56609069D01*
X161771000Y-56371243D01*
X161771000Y-56128757D01*
X161723693Y-55890931D01*
X161630898Y-55666903D01*
X161496180Y-55465283D01*
X161324717Y-55293820D01*
X161123097Y-55159102D01*
X160899069Y-55066307D01*
X160661243Y-55019000D01*
X160418757Y-55019000D01*
X160180931Y-55066307D01*
X159956903Y-55159102D01*
X159755283Y-55293820D01*
X159583820Y-55465283D01*
X159449102Y-55666903D01*
X159356307Y-55890931D01*
X159309000Y-56128757D01*
X159309000Y-56371243D01*
X159356307Y-56609069D01*
X159449102Y-56833097D01*
X159583820Y-57034717D01*
X159755283Y-57206180D01*
X159956903Y-57340898D01*
X160059000Y-57383188D01*
X160059000Y-57493873D01*
X160056673Y-57517500D01*
X160059000Y-57541125D01*
X160065960Y-57611791D01*
X160093464Y-57702460D01*
X160138128Y-57786022D01*
X160198236Y-57859264D01*
X160216594Y-57874330D01*
X162854001Y-60511738D01*
X162854000Y-71641125D01*
X162854001Y-71641135D01*
X162854000Y-87496659D01*
X162663097Y-87369102D01*
X162439069Y-87276307D01*
X162201243Y-87229000D01*
X161958757Y-87229000D01*
X161720931Y-87276307D01*
X161496903Y-87369102D01*
X161295283Y-87503820D01*
X161276000Y-87523103D01*
X161276000Y-60336126D01*
X161278327Y-60312500D01*
X161269040Y-60218207D01*
X161260696Y-60190703D01*
X161241536Y-60127539D01*
X161196872Y-60043978D01*
X161136764Y-59970736D01*
X161118412Y-59955675D01*
X158645579Y-57482843D01*
X158850000Y-57482843D01*
X158924689Y-57475487D01*
X158996508Y-57453701D01*
X159062696Y-57418322D01*
X159120711Y-57370711D01*
X159168322Y-57312696D01*
X159203701Y-57246508D01*
X159225487Y-57174689D01*
X159232843Y-57100000D01*
X159232843Y-55400000D01*
X159225487Y-55325311D01*
X159203701Y-55253492D01*
X159168322Y-55187304D01*
X159120711Y-55129289D01*
X159062696Y-55081678D01*
X158996508Y-55046299D01*
X158924689Y-55024513D01*
X158850000Y-55017157D01*
X157150000Y-55017157D01*
X157075311Y-55024513D01*
X157003492Y-55046299D01*
X156937304Y-55081678D01*
X156879289Y-55129289D01*
X156831678Y-55187304D01*
X156796299Y-55253492D01*
X156774513Y-55325311D01*
X156767157Y-55400000D01*
X156767157Y-57100000D01*
X156774513Y-57174689D01*
X156796299Y-57246508D01*
X156831678Y-57312696D01*
X156879289Y-57370711D01*
X156937304Y-57418322D01*
X157003492Y-57453701D01*
X157075311Y-57475487D01*
X157150000Y-57482843D01*
X157519001Y-57482843D01*
X157519001Y-57493864D01*
X157516673Y-57517500D01*
X157525960Y-57611792D01*
X157553465Y-57702460D01*
X157553465Y-57702461D01*
X157598129Y-57786022D01*
X157658237Y-57859264D01*
X157676589Y-57874325D01*
X160314001Y-60511738D01*
X160314000Y-92038874D01*
X160311673Y-92062500D01*
X160314000Y-92086125D01*
X160320960Y-92156791D01*
X160348464Y-92247460D01*
X160393128Y-92331022D01*
X160453236Y-92404264D01*
X160471594Y-92419330D01*
X160755670Y-92703406D01*
X160770736Y-92721764D01*
X160843978Y-92781872D01*
X160927539Y-92826536D01*
X160990703Y-92845696D01*
X161018207Y-92854040D01*
X161112500Y-92863327D01*
X161136126Y-92861000D01*
X166803874Y-92861000D01*
X166827500Y-92863327D01*
X166851126Y-92861000D01*
X166921792Y-92854040D01*
X167012461Y-92826536D01*
X167096022Y-92781872D01*
X167169264Y-92721764D01*
X167184329Y-92703407D01*
X167483411Y-92404326D01*
X167501764Y-92389264D01*
X167561872Y-92316022D01*
X167606536Y-92232461D01*
X167634040Y-92141792D01*
X167634627Y-92135827D01*
X167743097Y-92090898D01*
X167934000Y-91963341D01*
X167934001Y-126011364D01*
X167931673Y-126035000D01*
X167940960Y-126129292D01*
X167962661Y-126200827D01*
X167968465Y-126219961D01*
X168013129Y-126303522D01*
X168073237Y-126376764D01*
X168091589Y-126391825D01*
X169044087Y-127344324D01*
X169044092Y-127344328D01*
X169643174Y-127943411D01*
X169658236Y-127961764D01*
X169731478Y-128021872D01*
X169815039Y-128066536D01*
X169878203Y-128085696D01*
X169905707Y-128094040D01*
X169999999Y-128103327D01*
X170023626Y-128101000D01*
X171666812Y-128101000D01*
X171709102Y-128203097D01*
X171843820Y-128404717D01*
X172015283Y-128576180D01*
X172216903Y-128710898D01*
X172440931Y-128803693D01*
X172619000Y-128839113D01*
X172619000Y-128940887D01*
X172440931Y-128976307D01*
X172216903Y-129069102D01*
X172015283Y-129203820D01*
X171843820Y-129375283D01*
X171709102Y-129576903D01*
X171616307Y-129800931D01*
X171569000Y-130038757D01*
X171569000Y-130281243D01*
X171616307Y-130519069D01*
X171709102Y-130743097D01*
X171843820Y-130944717D01*
X172015283Y-131116180D01*
X172216903Y-131250898D01*
X172440931Y-131343693D01*
X172619000Y-131379113D01*
X172619000Y-134020887D01*
X172440931Y-134056307D01*
X172216903Y-134149102D01*
X172015283Y-134283820D01*
X171843820Y-134455283D01*
X171709102Y-134656903D01*
X171616307Y-134880931D01*
X171569000Y-135118757D01*
X171569000Y-135361243D01*
X171616307Y-135599069D01*
X171709102Y-135823097D01*
X171843820Y-136024717D01*
X172015283Y-136196180D01*
X172216903Y-136330898D01*
X172440931Y-136423693D01*
X172619000Y-136459113D01*
X172619000Y-136560887D01*
X172440931Y-136596307D01*
X172216903Y-136689102D01*
X172015283Y-136823820D01*
X171843820Y-136995283D01*
X171709102Y-137196903D01*
X171616307Y-137420931D01*
X171574984Y-137628673D01*
X171570729Y-137618142D01*
X171568068Y-137613136D01*
X171521655Y-137527299D01*
X171501078Y-137496793D01*
X171480930Y-137466003D01*
X171477347Y-137461609D01*
X171415145Y-137386420D01*
X171388995Y-137360452D01*
X171363291Y-137334204D01*
X171358929Y-137330595D01*
X171358921Y-137330587D01*
X171358912Y-137330581D01*
X171283302Y-137268914D01*
X171252658Y-137248553D01*
X171222286Y-137227758D01*
X171217299Y-137225061D01*
X171131138Y-137179249D01*
X171097102Y-137165221D01*
X171063299Y-137150733D01*
X171057884Y-137149056D01*
X170964466Y-137120851D01*
X170928345Y-137113699D01*
X170892372Y-137106053D01*
X170886743Y-137105461D01*
X170886738Y-137105460D01*
X170886734Y-137105460D01*
X170789740Y-137095950D01*
X170769941Y-137094000D01*
X169519851Y-137094000D01*
X169482122Y-137090301D01*
X169464921Y-137085107D01*
X169449056Y-137076672D01*
X169435140Y-137065322D01*
X169423682Y-137051472D01*
X169415139Y-137035672D01*
X169409827Y-137018511D01*
X169406000Y-136982099D01*
X169406000Y-130480059D01*
X169404296Y-130462756D01*
X169404317Y-130459714D01*
X169403764Y-130454072D01*
X169393564Y-130357023D01*
X169386161Y-130320957D01*
X169379269Y-130284831D01*
X169377631Y-130279404D01*
X169348775Y-130186185D01*
X169334505Y-130152238D01*
X169320729Y-130118142D01*
X169318068Y-130113136D01*
X169271655Y-130027299D01*
X169251078Y-129996793D01*
X169230930Y-129966003D01*
X169227347Y-129961609D01*
X169165145Y-129886420D01*
X169138995Y-129860452D01*
X169113291Y-129834204D01*
X169108929Y-129830595D01*
X169108921Y-129830587D01*
X169108912Y-129830581D01*
X169033302Y-129768914D01*
X169002658Y-129748553D01*
X168972286Y-129727758D01*
X168967299Y-129725061D01*
X168881138Y-129679249D01*
X168847102Y-129665221D01*
X168813299Y-129650733D01*
X168807884Y-129649056D01*
X168714466Y-129620851D01*
X168678345Y-129613699D01*
X168642372Y-129606053D01*
X168636743Y-129605461D01*
X168636738Y-129605460D01*
X168636734Y-129605460D01*
X168539740Y-129595950D01*
X168519941Y-129594000D01*
X131480059Y-129594000D01*
X131462756Y-129595704D01*
X131459714Y-129595683D01*
X131454072Y-129596236D01*
X131357023Y-129606436D01*
X131320957Y-129613839D01*
X131284831Y-129620731D01*
X131279404Y-129622369D01*
X131186185Y-129651225D01*
X131152238Y-129665495D01*
X131118142Y-129679271D01*
X131113143Y-129681928D01*
X131113139Y-129681930D01*
X131113136Y-129681932D01*
X131027299Y-129728345D01*
X130996793Y-129748922D01*
X130966003Y-129769070D01*
X130961609Y-129772653D01*
X130886420Y-129834855D01*
X130860452Y-129861005D01*
X130834204Y-129886709D01*
X130830595Y-129891071D01*
X130830587Y-129891079D01*
X130830581Y-129891088D01*
X130768914Y-129966698D01*
X130748553Y-129997342D01*
X130727758Y-130027714D01*
X130725061Y-130032701D01*
X130679249Y-130118862D01*
X130665221Y-130152898D01*
X130650733Y-130186701D01*
X130649056Y-130192116D01*
X130620851Y-130285534D01*
X130613699Y-130321655D01*
X130606053Y-130357628D01*
X130605460Y-130363266D01*
X130595991Y-130459845D01*
X130594000Y-130480060D01*
X130594001Y-136980139D01*
X130590301Y-137017878D01*
X130585107Y-137035079D01*
X130576672Y-137050944D01*
X130565322Y-137064860D01*
X130551472Y-137076318D01*
X130535672Y-137084861D01*
X130518511Y-137090173D01*
X130482099Y-137094000D01*
X129230059Y-137094000D01*
X129212756Y-137095704D01*
X129209714Y-137095683D01*
X129204072Y-137096236D01*
X129107023Y-137106436D01*
X129070957Y-137113839D01*
X129034831Y-137120731D01*
X129029404Y-137122369D01*
X128936185Y-137151225D01*
X128902238Y-137165495D01*
X128868142Y-137179271D01*
X128863143Y-137181928D01*
X128863139Y-137181930D01*
X128863136Y-137181932D01*
X128777299Y-137228345D01*
X128746793Y-137248922D01*
X128716003Y-137269070D01*
X128711609Y-137272653D01*
X128636420Y-137334855D01*
X128610452Y-137361005D01*
X128584204Y-137386709D01*
X128580595Y-137391071D01*
X128580587Y-137391079D01*
X128580581Y-137391088D01*
X128518914Y-137466698D01*
X128498553Y-137497342D01*
X128477758Y-137527714D01*
X128475061Y-137532701D01*
X128429249Y-137618862D01*
X128425078Y-137628983D01*
X128383693Y-137420931D01*
X128290898Y-137196903D01*
X128156180Y-136995283D01*
X127984717Y-136823820D01*
X127783097Y-136689102D01*
X127559069Y-136596307D01*
X127381000Y-136560887D01*
X127381000Y-136459113D01*
X127559069Y-136423693D01*
X127783097Y-136330898D01*
X127984717Y-136196180D01*
X128156180Y-136024717D01*
X128290898Y-135823097D01*
X128383693Y-135599069D01*
X128431000Y-135361243D01*
X128431000Y-135118757D01*
X128383693Y-134880931D01*
X128290898Y-134656903D01*
X128156180Y-134455283D01*
X127984717Y-134283820D01*
X127783097Y-134149102D01*
X127559069Y-134056307D01*
X127381000Y-134020887D01*
X127381000Y-131813500D01*
X128304790Y-131813500D01*
X128379121Y-131806179D01*
X128476322Y-131786844D01*
X128547792Y-131765164D01*
X128613662Y-131729956D01*
X128696066Y-131674896D01*
X128753803Y-131627513D01*
X131107816Y-129273500D01*
X147841000Y-129273500D01*
X147915331Y-129266179D01*
X148012533Y-129246844D01*
X148084005Y-129225163D01*
X148149874Y-129189955D01*
X148232277Y-129134895D01*
X148290013Y-129087513D01*
X148337395Y-129029777D01*
X148392455Y-128947374D01*
X148427663Y-128881506D01*
X148449344Y-128810033D01*
X148468679Y-128712831D01*
X148476000Y-128638500D01*
X148476000Y-106717567D01*
X148553269Y-106727740D01*
X148603000Y-106731000D01*
X151397000Y-106731000D01*
X151446731Y-106727740D01*
X151578211Y-106710430D01*
X151674281Y-106684689D01*
X151796801Y-106633940D01*
X151882939Y-106584208D01*
X151988149Y-106503477D01*
X152058477Y-106433149D01*
X152139208Y-106327939D01*
X152188940Y-106241801D01*
X152239689Y-106119281D01*
X152265430Y-106023211D01*
X152282740Y-105891731D01*
X152286000Y-105842000D01*
X152286000Y-90150000D01*
X155767157Y-90150000D01*
X155767157Y-91850000D01*
X155774513Y-91924689D01*
X155796299Y-91996508D01*
X155831678Y-92062696D01*
X155879289Y-92120711D01*
X155937304Y-92168322D01*
X156003492Y-92203701D01*
X156075311Y-92225487D01*
X156150000Y-92232843D01*
X157850000Y-92232843D01*
X157924689Y-92225487D01*
X157996508Y-92203701D01*
X158062696Y-92168322D01*
X158120711Y-92120711D01*
X158168322Y-92062696D01*
X158203701Y-91996508D01*
X158225487Y-91924689D01*
X158232843Y-91850000D01*
X158232843Y-90150000D01*
X158225487Y-90075311D01*
X158203701Y-90003492D01*
X158168322Y-89937304D01*
X158120711Y-89879289D01*
X158062696Y-89831678D01*
X157996508Y-89796299D01*
X157924689Y-89774513D01*
X157850000Y-89767157D01*
X157681000Y-89767157D01*
X157681000Y-89485481D01*
X157784717Y-89416180D01*
X157956180Y-89244717D01*
X158090898Y-89043097D01*
X158183693Y-88819069D01*
X158231000Y-88581243D01*
X158231000Y-88338757D01*
X158183693Y-88100931D01*
X158090898Y-87876903D01*
X157956180Y-87675283D01*
X157784717Y-87503820D01*
X157583097Y-87369102D01*
X157359069Y-87276307D01*
X157121243Y-87229000D01*
X156878757Y-87229000D01*
X156640931Y-87276307D01*
X156416903Y-87369102D01*
X156215283Y-87503820D01*
X156043820Y-87675283D01*
X155909102Y-87876903D01*
X155816307Y-88100931D01*
X155769000Y-88338757D01*
X155769000Y-88581243D01*
X155816307Y-88819069D01*
X155909102Y-89043097D01*
X156043820Y-89244717D01*
X156215283Y-89416180D01*
X156319001Y-89485482D01*
X156319000Y-89767157D01*
X156150000Y-89767157D01*
X156075311Y-89774513D01*
X156003492Y-89796299D01*
X155937304Y-89831678D01*
X155879289Y-89879289D01*
X155831678Y-89937304D01*
X155796299Y-90003492D01*
X155774513Y-90075311D01*
X155767157Y-90150000D01*
X152286000Y-90150000D01*
X152286000Y-89395500D01*
X152282740Y-89345769D01*
X152265430Y-89214289D01*
X152239689Y-89118219D01*
X152188940Y-88995699D01*
X152139208Y-88909561D01*
X152058477Y-88804351D01*
X151988149Y-88734023D01*
X151882939Y-88653292D01*
X151796801Y-88603560D01*
X151674281Y-88552811D01*
X151578211Y-88527070D01*
X151446731Y-88509760D01*
X151397000Y-88506500D01*
X148603000Y-88506500D01*
X148553269Y-88509760D01*
X148421789Y-88527070D01*
X148325719Y-88552811D01*
X148203199Y-88603560D01*
X148185443Y-88613811D01*
X148149874Y-88590045D01*
X148084006Y-88554837D01*
X148012533Y-88533156D01*
X147915331Y-88513821D01*
X147841000Y-88506500D01*
X144221500Y-88506500D01*
X144147169Y-88513821D01*
X144049967Y-88533156D01*
X143978495Y-88554837D01*
X143912626Y-88590045D01*
X143830223Y-88645105D01*
X143772487Y-88692487D01*
X143725105Y-88750223D01*
X143670045Y-88832626D01*
X143634837Y-88898494D01*
X143613156Y-88969967D01*
X143593821Y-89067169D01*
X143586500Y-89141500D01*
X143586500Y-103442433D01*
X143509231Y-103432260D01*
X143459500Y-103429000D01*
X140665500Y-103429000D01*
X140615769Y-103432260D01*
X140538500Y-103442433D01*
X140538500Y-89395500D01*
X140535240Y-89345769D01*
X140517930Y-89214289D01*
X140492189Y-89118219D01*
X140441440Y-88995699D01*
X140391708Y-88909561D01*
X140310977Y-88804351D01*
X140240649Y-88734023D01*
X140135439Y-88653292D01*
X140049301Y-88603560D01*
X139926781Y-88552811D01*
X139830711Y-88527070D01*
X139699231Y-88509760D01*
X139649500Y-88506500D01*
X136855500Y-88506500D01*
X136805769Y-88509760D01*
X136674289Y-88527070D01*
X136578219Y-88552811D01*
X136455699Y-88603560D01*
X136369561Y-88653292D01*
X136264351Y-88734023D01*
X136194023Y-88804351D01*
X136113292Y-88909561D01*
X136063560Y-88995699D01*
X136012811Y-89118219D01*
X135987070Y-89214289D01*
X135969760Y-89345769D01*
X135966500Y-89395500D01*
X135966500Y-118224500D01*
X135969760Y-118274231D01*
X135987070Y-118405711D01*
X136012811Y-118501781D01*
X136063560Y-118624301D01*
X136113292Y-118710439D01*
X136194023Y-118815649D01*
X136264351Y-118885977D01*
X136369561Y-118966708D01*
X136455699Y-119016440D01*
X136578219Y-119067189D01*
X136674289Y-119092930D01*
X136805769Y-119110240D01*
X136855500Y-119113500D01*
X139649500Y-119113500D01*
X139699231Y-119110240D01*
X139776500Y-119100067D01*
X139776500Y-123279531D01*
X139768998Y-123336517D01*
X139756637Y-123366357D01*
X139736978Y-123391978D01*
X139711357Y-123411637D01*
X139681517Y-123423998D01*
X139624531Y-123431500D01*
X131477920Y-123431500D01*
X131428189Y-123434760D01*
X131296709Y-123452070D01*
X131200639Y-123477811D01*
X131078119Y-123528560D01*
X130991981Y-123578292D01*
X130886771Y-123659023D01*
X130849302Y-123691882D01*
X128624537Y-125916647D01*
X128578937Y-125951637D01*
X128549097Y-125963998D01*
X128492111Y-125971500D01*
X127381000Y-125971500D01*
X127381000Y-123759113D01*
X127559069Y-123723693D01*
X127783097Y-123630898D01*
X127984717Y-123496180D01*
X128156180Y-123324717D01*
X128290898Y-123123097D01*
X128383693Y-122899069D01*
X128431000Y-122661243D01*
X128431000Y-122418757D01*
X128383693Y-122180931D01*
X128290898Y-121956903D01*
X128156180Y-121755283D01*
X127984717Y-121583820D01*
X127783097Y-121449102D01*
X127559069Y-121356307D01*
X127381000Y-121320887D01*
X127381000Y-87532969D01*
X127388502Y-87475983D01*
X127400863Y-87446143D01*
X127420522Y-87420522D01*
X127446143Y-87400863D01*
X127475983Y-87388502D01*
X127532969Y-87381000D01*
X135492000Y-87381000D01*
X135541731Y-87377740D01*
X135673211Y-87360430D01*
X135769281Y-87334689D01*
X135891801Y-87283940D01*
X135977939Y-87234208D01*
X136083149Y-87153477D01*
X136153477Y-87083149D01*
X136234208Y-86977939D01*
X136283940Y-86891801D01*
X136334689Y-86769281D01*
X136360430Y-86673211D01*
X136377740Y-86541731D01*
X136381000Y-86492000D01*
X136381000Y-52532969D01*
X136388502Y-52475983D01*
X136400863Y-52446143D01*
X136420522Y-52420522D01*
X136446143Y-52400863D01*
X136475983Y-52388502D01*
X136532969Y-52381000D01*
X168256026Y-52381000D01*
X168181035Y-52493232D01*
%TA.AperFunction,Conductor*%
D19*
G36*
X168181035Y-52493232D02*
G01*
X167941245Y-53072137D01*
X167819000Y-53686699D01*
X167819000Y-54313301D01*
X167941245Y-54927863D01*
X168181035Y-55506768D01*
X168529156Y-56027769D01*
X168972231Y-56470844D01*
X169493232Y-56818965D01*
X170072137Y-57058755D01*
X170686699Y-57181000D01*
X171313301Y-57181000D01*
X171927863Y-57058755D01*
X172506768Y-56818965D01*
X172619000Y-56743974D01*
X172619000Y-116240887D01*
X172440931Y-116276307D01*
X172216903Y-116369102D01*
X172015283Y-116503820D01*
X171843820Y-116675283D01*
X171709102Y-116876903D01*
X171616307Y-117100931D01*
X171569000Y-117338757D01*
X171569000Y-117581243D01*
X171616307Y-117819069D01*
X171709102Y-118043097D01*
X171843820Y-118244717D01*
X172015283Y-118416180D01*
X172216903Y-118550898D01*
X172440931Y-118643693D01*
X172619000Y-118679113D01*
X172619000Y-121320887D01*
X172440931Y-121356307D01*
X172216903Y-121449102D01*
X172015283Y-121583820D01*
X171843820Y-121755283D01*
X171709102Y-121956903D01*
X171616307Y-122180931D01*
X171569000Y-122418757D01*
X171569000Y-122661243D01*
X171616307Y-122899069D01*
X171709102Y-123123097D01*
X171843820Y-123324717D01*
X172015283Y-123496180D01*
X172216903Y-123630898D01*
X172440931Y-123723693D01*
X172619000Y-123759113D01*
X172619000Y-123860887D01*
X172440931Y-123896307D01*
X172216903Y-123989102D01*
X172015283Y-124123820D01*
X171843820Y-124295283D01*
X171709102Y-124496903D01*
X171616307Y-124720931D01*
X171569000Y-124958757D01*
X171569000Y-125201243D01*
X171616307Y-125439069D01*
X171709102Y-125663097D01*
X171843820Y-125864717D01*
X171850603Y-125871500D01*
X169884236Y-125871500D01*
X169531000Y-125518264D01*
X169531000Y-93849236D01*
X171278412Y-92101825D01*
X171296764Y-92086764D01*
X171356872Y-92013522D01*
X171401536Y-91929961D01*
X171429040Y-91839292D01*
X171436000Y-91768626D01*
X171438327Y-91745000D01*
X171436000Y-91721374D01*
X171436000Y-89738625D01*
X171438327Y-89714999D01*
X171429040Y-89620707D01*
X171414106Y-89571478D01*
X171401536Y-89530039D01*
X171356872Y-89446478D01*
X171296764Y-89373236D01*
X171278412Y-89358175D01*
X170841403Y-88921166D01*
X170883693Y-88819069D01*
X170931000Y-88581243D01*
X170931000Y-88338757D01*
X170883693Y-88100931D01*
X170790898Y-87876903D01*
X170656180Y-87675283D01*
X170484717Y-87503820D01*
X170283097Y-87369102D01*
X170059069Y-87276307D01*
X169821243Y-87229000D01*
X169578757Y-87229000D01*
X169340931Y-87276307D01*
X169116903Y-87369102D01*
X168915283Y-87503820D01*
X168896000Y-87523103D01*
X168896000Y-60336126D01*
X168898327Y-60312500D01*
X168889040Y-60218207D01*
X168880696Y-60190703D01*
X168861536Y-60127539D01*
X168816872Y-60043978D01*
X168756764Y-59970736D01*
X168738412Y-59955675D01*
X166146908Y-57364172D01*
X166203097Y-57340898D01*
X166404717Y-57206180D01*
X166576180Y-57034717D01*
X166710898Y-56833097D01*
X166803693Y-56609069D01*
X166851000Y-56371243D01*
X166851000Y-56128757D01*
X166803693Y-55890931D01*
X166710898Y-55666903D01*
X166576180Y-55465283D01*
X166404717Y-55293820D01*
X166203097Y-55159102D01*
X165979069Y-55066307D01*
X165741243Y-55019000D01*
X165498757Y-55019000D01*
X165260931Y-55066307D01*
X165036903Y-55159102D01*
X164835283Y-55293820D01*
X164663820Y-55465283D01*
X164529102Y-55666903D01*
X164436307Y-55890931D01*
X164389000Y-56128757D01*
X164389000Y-56371243D01*
X164436307Y-56609069D01*
X164529102Y-56833097D01*
X164663820Y-57034717D01*
X164835283Y-57206180D01*
X165036903Y-57340898D01*
X165139000Y-57383188D01*
X165139000Y-57493873D01*
X165136673Y-57517500D01*
X165139000Y-57541125D01*
X165145960Y-57611791D01*
X165173464Y-57702460D01*
X165218128Y-57786022D01*
X165278236Y-57859264D01*
X165296594Y-57874330D01*
X167934001Y-60511738D01*
X167934000Y-87496659D01*
X167743097Y-87369102D01*
X167519069Y-87276307D01*
X167281243Y-87229000D01*
X167038757Y-87229000D01*
X166800931Y-87276307D01*
X166576903Y-87369102D01*
X166375283Y-87503820D01*
X166356000Y-87523103D01*
X166356000Y-60336126D01*
X166358327Y-60312500D01*
X166349040Y-60218207D01*
X166340696Y-60190703D01*
X166321536Y-60127539D01*
X166276872Y-60043978D01*
X166216764Y-59970736D01*
X166198412Y-59955675D01*
X163606908Y-57364172D01*
X163663097Y-57340898D01*
X163864717Y-57206180D01*
X164036180Y-57034717D01*
X164170898Y-56833097D01*
X164263693Y-56609069D01*
X164311000Y-56371243D01*
X164311000Y-56128757D01*
X164263693Y-55890931D01*
X164170898Y-55666903D01*
X164036180Y-55465283D01*
X163864717Y-55293820D01*
X163663097Y-55159102D01*
X163439069Y-55066307D01*
X163201243Y-55019000D01*
X162958757Y-55019000D01*
X162720931Y-55066307D01*
X162496903Y-55159102D01*
X162295283Y-55293820D01*
X162123820Y-55465283D01*
X161989102Y-55666903D01*
X161896307Y-55890931D01*
X161849000Y-56128757D01*
X161849000Y-56371243D01*
X161896307Y-56609069D01*
X161989102Y-56833097D01*
X162123820Y-57034717D01*
X162295283Y-57206180D01*
X162496903Y-57340898D01*
X162599000Y-57383188D01*
X162599000Y-57493873D01*
X162596673Y-57517500D01*
X162599000Y-57541125D01*
X162605960Y-57611791D01*
X162633464Y-57702460D01*
X162678128Y-57786022D01*
X162738236Y-57859264D01*
X162756594Y-57874330D01*
X165394001Y-60511738D01*
X165394000Y-87496659D01*
X165203097Y-87369102D01*
X164979069Y-87276307D01*
X164741243Y-87229000D01*
X164498757Y-87229000D01*
X164260931Y-87276307D01*
X164036903Y-87369102D01*
X163835283Y-87503820D01*
X163816000Y-87523103D01*
X163816000Y-60336126D01*
X163818327Y-60312500D01*
X163809040Y-60218207D01*
X163800696Y-60190703D01*
X163781536Y-60127539D01*
X163736872Y-60043978D01*
X163676764Y-59970736D01*
X163658412Y-59955675D01*
X161066908Y-57364172D01*
X161123097Y-57340898D01*
X161324717Y-57206180D01*
X161496180Y-57034717D01*
X161630898Y-56833097D01*
X161723693Y-56609069D01*
X161771000Y-56371243D01*
X161771000Y-56128757D01*
X161723693Y-55890931D01*
X161630898Y-55666903D01*
X161496180Y-55465283D01*
X161324717Y-55293820D01*
X161123097Y-55159102D01*
X160899069Y-55066307D01*
X160661243Y-55019000D01*
X160418757Y-55019000D01*
X160180931Y-55066307D01*
X159956903Y-55159102D01*
X159755283Y-55293820D01*
X159583820Y-55465283D01*
X159449102Y-55666903D01*
X159356307Y-55890931D01*
X159309000Y-56128757D01*
X159309000Y-56371243D01*
X159356307Y-56609069D01*
X159449102Y-56833097D01*
X159583820Y-57034717D01*
X159755283Y-57206180D01*
X159956903Y-57340898D01*
X160059000Y-57383188D01*
X160059000Y-57493873D01*
X160056673Y-57517500D01*
X160059000Y-57541125D01*
X160065960Y-57611791D01*
X160093464Y-57702460D01*
X160138128Y-57786022D01*
X160198236Y-57859264D01*
X160216594Y-57874330D01*
X162854001Y-60511738D01*
X162854000Y-71641125D01*
X162854001Y-71641135D01*
X162854000Y-87496659D01*
X162663097Y-87369102D01*
X162439069Y-87276307D01*
X162201243Y-87229000D01*
X161958757Y-87229000D01*
X161720931Y-87276307D01*
X161496903Y-87369102D01*
X161295283Y-87503820D01*
X161276000Y-87523103D01*
X161276000Y-60336126D01*
X161278327Y-60312500D01*
X161269040Y-60218207D01*
X161260696Y-60190703D01*
X161241536Y-60127539D01*
X161196872Y-60043978D01*
X161136764Y-59970736D01*
X161118412Y-59955675D01*
X158645579Y-57482843D01*
X158850000Y-57482843D01*
X158924689Y-57475487D01*
X158996508Y-57453701D01*
X159062696Y-57418322D01*
X159120711Y-57370711D01*
X159168322Y-57312696D01*
X159203701Y-57246508D01*
X159225487Y-57174689D01*
X159232843Y-57100000D01*
X159232843Y-55400000D01*
X159225487Y-55325311D01*
X159203701Y-55253492D01*
X159168322Y-55187304D01*
X159120711Y-55129289D01*
X159062696Y-55081678D01*
X158996508Y-55046299D01*
X158924689Y-55024513D01*
X158850000Y-55017157D01*
X157150000Y-55017157D01*
X157075311Y-55024513D01*
X157003492Y-55046299D01*
X156937304Y-55081678D01*
X156879289Y-55129289D01*
X156831678Y-55187304D01*
X156796299Y-55253492D01*
X156774513Y-55325311D01*
X156767157Y-55400000D01*
X156767157Y-57100000D01*
X156774513Y-57174689D01*
X156796299Y-57246508D01*
X156831678Y-57312696D01*
X156879289Y-57370711D01*
X156937304Y-57418322D01*
X157003492Y-57453701D01*
X157075311Y-57475487D01*
X157150000Y-57482843D01*
X157519001Y-57482843D01*
X157519001Y-57493864D01*
X157516673Y-57517500D01*
X157525960Y-57611792D01*
X157553465Y-57702460D01*
X157553465Y-57702461D01*
X157598129Y-57786022D01*
X157658237Y-57859264D01*
X157676589Y-57874325D01*
X160314001Y-60511738D01*
X160314000Y-92038874D01*
X160311673Y-92062500D01*
X160314000Y-92086125D01*
X160320960Y-92156791D01*
X160348464Y-92247460D01*
X160393128Y-92331022D01*
X160453236Y-92404264D01*
X160471594Y-92419330D01*
X160755670Y-92703406D01*
X160770736Y-92721764D01*
X160843978Y-92781872D01*
X160927539Y-92826536D01*
X160990703Y-92845696D01*
X161018207Y-92854040D01*
X161112500Y-92863327D01*
X161136126Y-92861000D01*
X166803874Y-92861000D01*
X166827500Y-92863327D01*
X166851126Y-92861000D01*
X166921792Y-92854040D01*
X167012461Y-92826536D01*
X167096022Y-92781872D01*
X167169264Y-92721764D01*
X167184329Y-92703407D01*
X167483411Y-92404326D01*
X167501764Y-92389264D01*
X167561872Y-92316022D01*
X167606536Y-92232461D01*
X167634040Y-92141792D01*
X167634627Y-92135827D01*
X167743097Y-92090898D01*
X167934000Y-91963341D01*
X167934001Y-126011364D01*
X167931673Y-126035000D01*
X167940960Y-126129292D01*
X167962661Y-126200827D01*
X167968465Y-126219961D01*
X168013129Y-126303522D01*
X168073237Y-126376764D01*
X168091589Y-126391825D01*
X169044087Y-127344324D01*
X169044092Y-127344328D01*
X169643174Y-127943411D01*
X169658236Y-127961764D01*
X169731478Y-128021872D01*
X169815039Y-128066536D01*
X169878203Y-128085696D01*
X169905707Y-128094040D01*
X169999999Y-128103327D01*
X170023626Y-128101000D01*
X171666812Y-128101000D01*
X171709102Y-128203097D01*
X171843820Y-128404717D01*
X172015283Y-128576180D01*
X172216903Y-128710898D01*
X172440931Y-128803693D01*
X172619000Y-128839113D01*
X172619000Y-128940887D01*
X172440931Y-128976307D01*
X172216903Y-129069102D01*
X172015283Y-129203820D01*
X171843820Y-129375283D01*
X171709102Y-129576903D01*
X171616307Y-129800931D01*
X171569000Y-130038757D01*
X171569000Y-130281243D01*
X171616307Y-130519069D01*
X171709102Y-130743097D01*
X171843820Y-130944717D01*
X172015283Y-131116180D01*
X172216903Y-131250898D01*
X172440931Y-131343693D01*
X172619000Y-131379113D01*
X172619000Y-134020887D01*
X172440931Y-134056307D01*
X172216903Y-134149102D01*
X172015283Y-134283820D01*
X171843820Y-134455283D01*
X171709102Y-134656903D01*
X171616307Y-134880931D01*
X171569000Y-135118757D01*
X171569000Y-135361243D01*
X171616307Y-135599069D01*
X171709102Y-135823097D01*
X171843820Y-136024717D01*
X172015283Y-136196180D01*
X172216903Y-136330898D01*
X172440931Y-136423693D01*
X172619000Y-136459113D01*
X172619000Y-136560887D01*
X172440931Y-136596307D01*
X172216903Y-136689102D01*
X172015283Y-136823820D01*
X171843820Y-136995283D01*
X171709102Y-137196903D01*
X171616307Y-137420931D01*
X171574984Y-137628673D01*
X171570729Y-137618142D01*
X171568068Y-137613136D01*
X171521655Y-137527299D01*
X171501078Y-137496793D01*
X171480930Y-137466003D01*
X171477347Y-137461609D01*
X171415145Y-137386420D01*
X171388995Y-137360452D01*
X171363291Y-137334204D01*
X171358929Y-137330595D01*
X171358921Y-137330587D01*
X171358912Y-137330581D01*
X171283302Y-137268914D01*
X171252658Y-137248553D01*
X171222286Y-137227758D01*
X171217299Y-137225061D01*
X171131138Y-137179249D01*
X171097102Y-137165221D01*
X171063299Y-137150733D01*
X171057884Y-137149056D01*
X170964466Y-137120851D01*
X170928345Y-137113699D01*
X170892372Y-137106053D01*
X170886743Y-137105461D01*
X170886738Y-137105460D01*
X170886734Y-137105460D01*
X170789740Y-137095950D01*
X170769941Y-137094000D01*
X169519851Y-137094000D01*
X169482122Y-137090301D01*
X169464921Y-137085107D01*
X169449056Y-137076672D01*
X169435140Y-137065322D01*
X169423682Y-137051472D01*
X169415139Y-137035672D01*
X169409827Y-137018511D01*
X169406000Y-136982099D01*
X169406000Y-130480059D01*
X169404296Y-130462756D01*
X169404317Y-130459714D01*
X169403764Y-130454072D01*
X169393564Y-130357023D01*
X169386161Y-130320957D01*
X169379269Y-130284831D01*
X169377631Y-130279404D01*
X169348775Y-130186185D01*
X169334505Y-130152238D01*
X169320729Y-130118142D01*
X169318068Y-130113136D01*
X169271655Y-130027299D01*
X169251078Y-129996793D01*
X169230930Y-129966003D01*
X169227347Y-129961609D01*
X169165145Y-129886420D01*
X169138995Y-129860452D01*
X169113291Y-129834204D01*
X169108929Y-129830595D01*
X169108921Y-129830587D01*
X169108912Y-129830581D01*
X169033302Y-129768914D01*
X169002658Y-129748553D01*
X168972286Y-129727758D01*
X168967299Y-129725061D01*
X168881138Y-129679249D01*
X168847102Y-129665221D01*
X168813299Y-129650733D01*
X168807884Y-129649056D01*
X168714466Y-129620851D01*
X168678345Y-129613699D01*
X168642372Y-129606053D01*
X168636743Y-129605461D01*
X168636738Y-129605460D01*
X168636734Y-129605460D01*
X168539740Y-129595950D01*
X168519941Y-129594000D01*
X131480059Y-129594000D01*
X131462756Y-129595704D01*
X131459714Y-129595683D01*
X131454072Y-129596236D01*
X131357023Y-129606436D01*
X131320957Y-129613839D01*
X131284831Y-129620731D01*
X131279404Y-129622369D01*
X131186185Y-129651225D01*
X131152238Y-129665495D01*
X131118142Y-129679271D01*
X131113143Y-129681928D01*
X131113139Y-129681930D01*
X131113136Y-129681932D01*
X131027299Y-129728345D01*
X130996793Y-129748922D01*
X130966003Y-129769070D01*
X130961609Y-129772653D01*
X130886420Y-129834855D01*
X130860452Y-129861005D01*
X130834204Y-129886709D01*
X130830595Y-129891071D01*
X130830587Y-129891079D01*
X130830581Y-129891088D01*
X130768914Y-129966698D01*
X130748553Y-129997342D01*
X130727758Y-130027714D01*
X130725061Y-130032701D01*
X130679249Y-130118862D01*
X130665221Y-130152898D01*
X130650733Y-130186701D01*
X130649056Y-130192116D01*
X130620851Y-130285534D01*
X130613699Y-130321655D01*
X130606053Y-130357628D01*
X130605460Y-130363266D01*
X130595991Y-130459845D01*
X130594000Y-130480060D01*
X130594001Y-136980139D01*
X130590301Y-137017878D01*
X130585107Y-137035079D01*
X130576672Y-137050944D01*
X130565322Y-137064860D01*
X130551472Y-137076318D01*
X130535672Y-137084861D01*
X130518511Y-137090173D01*
X130482099Y-137094000D01*
X129230059Y-137094000D01*
X129212756Y-137095704D01*
X129209714Y-137095683D01*
X129204072Y-137096236D01*
X129107023Y-137106436D01*
X129070957Y-137113839D01*
X129034831Y-137120731D01*
X129029404Y-137122369D01*
X128936185Y-137151225D01*
X128902238Y-137165495D01*
X128868142Y-137179271D01*
X128863143Y-137181928D01*
X128863139Y-137181930D01*
X128863136Y-137181932D01*
X128777299Y-137228345D01*
X128746793Y-137248922D01*
X128716003Y-137269070D01*
X128711609Y-137272653D01*
X128636420Y-137334855D01*
X128610452Y-137361005D01*
X128584204Y-137386709D01*
X128580595Y-137391071D01*
X128580587Y-137391079D01*
X128580581Y-137391088D01*
X128518914Y-137466698D01*
X128498553Y-137497342D01*
X128477758Y-137527714D01*
X128475061Y-137532701D01*
X128429249Y-137618862D01*
X128425078Y-137628983D01*
X128383693Y-137420931D01*
X128290898Y-137196903D01*
X128156180Y-136995283D01*
X127984717Y-136823820D01*
X127783097Y-136689102D01*
X127559069Y-136596307D01*
X127381000Y-136560887D01*
X127381000Y-136459113D01*
X127559069Y-136423693D01*
X127783097Y-136330898D01*
X127984717Y-136196180D01*
X128156180Y-136024717D01*
X128290898Y-135823097D01*
X128383693Y-135599069D01*
X128431000Y-135361243D01*
X128431000Y-135118757D01*
X128383693Y-134880931D01*
X128290898Y-134656903D01*
X128156180Y-134455283D01*
X127984717Y-134283820D01*
X127783097Y-134149102D01*
X127559069Y-134056307D01*
X127381000Y-134020887D01*
X127381000Y-131813500D01*
X128304790Y-131813500D01*
X128379121Y-131806179D01*
X128476322Y-131786844D01*
X128547792Y-131765164D01*
X128613662Y-131729956D01*
X128696066Y-131674896D01*
X128753803Y-131627513D01*
X131107816Y-129273500D01*
X147841000Y-129273500D01*
X147915331Y-129266179D01*
X148012533Y-129246844D01*
X148084005Y-129225163D01*
X148149874Y-129189955D01*
X148232277Y-129134895D01*
X148290013Y-129087513D01*
X148337395Y-129029777D01*
X148392455Y-128947374D01*
X148427663Y-128881506D01*
X148449344Y-128810033D01*
X148468679Y-128712831D01*
X148476000Y-128638500D01*
X148476000Y-106717567D01*
X148553269Y-106727740D01*
X148603000Y-106731000D01*
X151397000Y-106731000D01*
X151446731Y-106727740D01*
X151578211Y-106710430D01*
X151674281Y-106684689D01*
X151796801Y-106633940D01*
X151882939Y-106584208D01*
X151988149Y-106503477D01*
X152058477Y-106433149D01*
X152139208Y-106327939D01*
X152188940Y-106241801D01*
X152239689Y-106119281D01*
X152265430Y-106023211D01*
X152282740Y-105891731D01*
X152286000Y-105842000D01*
X152286000Y-90150000D01*
X155767157Y-90150000D01*
X155767157Y-91850000D01*
X155774513Y-91924689D01*
X155796299Y-91996508D01*
X155831678Y-92062696D01*
X155879289Y-92120711D01*
X155937304Y-92168322D01*
X156003492Y-92203701D01*
X156075311Y-92225487D01*
X156150000Y-92232843D01*
X157850000Y-92232843D01*
X157924689Y-92225487D01*
X157996508Y-92203701D01*
X158062696Y-92168322D01*
X158120711Y-92120711D01*
X158168322Y-92062696D01*
X158203701Y-91996508D01*
X158225487Y-91924689D01*
X158232843Y-91850000D01*
X158232843Y-90150000D01*
X158225487Y-90075311D01*
X158203701Y-90003492D01*
X158168322Y-89937304D01*
X158120711Y-89879289D01*
X158062696Y-89831678D01*
X157996508Y-89796299D01*
X157924689Y-89774513D01*
X157850000Y-89767157D01*
X157681000Y-89767157D01*
X157681000Y-89485481D01*
X157784717Y-89416180D01*
X157956180Y-89244717D01*
X158090898Y-89043097D01*
X158183693Y-88819069D01*
X158231000Y-88581243D01*
X158231000Y-88338757D01*
X158183693Y-88100931D01*
X158090898Y-87876903D01*
X157956180Y-87675283D01*
X157784717Y-87503820D01*
X157583097Y-87369102D01*
X157359069Y-87276307D01*
X157121243Y-87229000D01*
X156878757Y-87229000D01*
X156640931Y-87276307D01*
X156416903Y-87369102D01*
X156215283Y-87503820D01*
X156043820Y-87675283D01*
X155909102Y-87876903D01*
X155816307Y-88100931D01*
X155769000Y-88338757D01*
X155769000Y-88581243D01*
X155816307Y-88819069D01*
X155909102Y-89043097D01*
X156043820Y-89244717D01*
X156215283Y-89416180D01*
X156319001Y-89485482D01*
X156319000Y-89767157D01*
X156150000Y-89767157D01*
X156075311Y-89774513D01*
X156003492Y-89796299D01*
X155937304Y-89831678D01*
X155879289Y-89879289D01*
X155831678Y-89937304D01*
X155796299Y-90003492D01*
X155774513Y-90075311D01*
X155767157Y-90150000D01*
X152286000Y-90150000D01*
X152286000Y-89395500D01*
X152282740Y-89345769D01*
X152265430Y-89214289D01*
X152239689Y-89118219D01*
X152188940Y-88995699D01*
X152139208Y-88909561D01*
X152058477Y-88804351D01*
X151988149Y-88734023D01*
X151882939Y-88653292D01*
X151796801Y-88603560D01*
X151674281Y-88552811D01*
X151578211Y-88527070D01*
X151446731Y-88509760D01*
X151397000Y-88506500D01*
X148603000Y-88506500D01*
X148553269Y-88509760D01*
X148421789Y-88527070D01*
X148325719Y-88552811D01*
X148203199Y-88603560D01*
X148185443Y-88613811D01*
X148149874Y-88590045D01*
X148084006Y-88554837D01*
X148012533Y-88533156D01*
X147915331Y-88513821D01*
X147841000Y-88506500D01*
X144221500Y-88506500D01*
X144147169Y-88513821D01*
X144049967Y-88533156D01*
X143978495Y-88554837D01*
X143912626Y-88590045D01*
X143830223Y-88645105D01*
X143772487Y-88692487D01*
X143725105Y-88750223D01*
X143670045Y-88832626D01*
X143634837Y-88898494D01*
X143613156Y-88969967D01*
X143593821Y-89067169D01*
X143586500Y-89141500D01*
X143586500Y-103442433D01*
X143509231Y-103432260D01*
X143459500Y-103429000D01*
X140665500Y-103429000D01*
X140615769Y-103432260D01*
X140538500Y-103442433D01*
X140538500Y-89395500D01*
X140535240Y-89345769D01*
X140517930Y-89214289D01*
X140492189Y-89118219D01*
X140441440Y-88995699D01*
X140391708Y-88909561D01*
X140310977Y-88804351D01*
X140240649Y-88734023D01*
X140135439Y-88653292D01*
X140049301Y-88603560D01*
X139926781Y-88552811D01*
X139830711Y-88527070D01*
X139699231Y-88509760D01*
X139649500Y-88506500D01*
X136855500Y-88506500D01*
X136805769Y-88509760D01*
X136674289Y-88527070D01*
X136578219Y-88552811D01*
X136455699Y-88603560D01*
X136369561Y-88653292D01*
X136264351Y-88734023D01*
X136194023Y-88804351D01*
X136113292Y-88909561D01*
X136063560Y-88995699D01*
X136012811Y-89118219D01*
X135987070Y-89214289D01*
X135969760Y-89345769D01*
X135966500Y-89395500D01*
X135966500Y-118224500D01*
X135969760Y-118274231D01*
X135987070Y-118405711D01*
X136012811Y-118501781D01*
X136063560Y-118624301D01*
X136113292Y-118710439D01*
X136194023Y-118815649D01*
X136264351Y-118885977D01*
X136369561Y-118966708D01*
X136455699Y-119016440D01*
X136578219Y-119067189D01*
X136674289Y-119092930D01*
X136805769Y-119110240D01*
X136855500Y-119113500D01*
X139649500Y-119113500D01*
X139699231Y-119110240D01*
X139776500Y-119100067D01*
X139776500Y-123279531D01*
X139768998Y-123336517D01*
X139756637Y-123366357D01*
X139736978Y-123391978D01*
X139711357Y-123411637D01*
X139681517Y-123423998D01*
X139624531Y-123431500D01*
X131477920Y-123431500D01*
X131428189Y-123434760D01*
X131296709Y-123452070D01*
X131200639Y-123477811D01*
X131078119Y-123528560D01*
X130991981Y-123578292D01*
X130886771Y-123659023D01*
X130849302Y-123691882D01*
X128624537Y-125916647D01*
X128578937Y-125951637D01*
X128549097Y-125963998D01*
X128492111Y-125971500D01*
X127381000Y-125971500D01*
X127381000Y-123759113D01*
X127559069Y-123723693D01*
X127783097Y-123630898D01*
X127984717Y-123496180D01*
X128156180Y-123324717D01*
X128290898Y-123123097D01*
X128383693Y-122899069D01*
X128431000Y-122661243D01*
X128431000Y-122418757D01*
X128383693Y-122180931D01*
X128290898Y-121956903D01*
X128156180Y-121755283D01*
X127984717Y-121583820D01*
X127783097Y-121449102D01*
X127559069Y-121356307D01*
X127381000Y-121320887D01*
X127381000Y-87532969D01*
X127388502Y-87475983D01*
X127400863Y-87446143D01*
X127420522Y-87420522D01*
X127446143Y-87400863D01*
X127475983Y-87388502D01*
X127532969Y-87381000D01*
X135492000Y-87381000D01*
X135541731Y-87377740D01*
X135673211Y-87360430D01*
X135769281Y-87334689D01*
X135891801Y-87283940D01*
X135977939Y-87234208D01*
X136083149Y-87153477D01*
X136153477Y-87083149D01*
X136234208Y-86977939D01*
X136283940Y-86891801D01*
X136334689Y-86769281D01*
X136360430Y-86673211D01*
X136377740Y-86541731D01*
X136381000Y-86492000D01*
X136381000Y-52532969D01*
X136388502Y-52475983D01*
X136400863Y-52446143D01*
X136420522Y-52420522D01*
X136446143Y-52400863D01*
X136475983Y-52388502D01*
X136532969Y-52381000D01*
X168256026Y-52381000D01*
X168181035Y-52493232D01*
G37*
%TD.AperFunction*%
%TD*%
D18*
%TO.N,VEE*%
X147760311Y-89118219D02*
X147734570Y-89214289D01*
X147717260Y-89345769D01*
X147714000Y-89395500D01*
X147714000Y-105842000D01*
X147717260Y-105891731D01*
X147734570Y-106023211D01*
X147760311Y-106119281D01*
X147811060Y-106241801D01*
X147860792Y-106327939D01*
X147941523Y-106433149D01*
X147968000Y-106459626D01*
X147968000Y-128625990D01*
X147956033Y-128686149D01*
X147929043Y-128726543D01*
X147888649Y-128753533D01*
X147828490Y-128765500D01*
X131055210Y-128765500D01*
X131030433Y-128767940D01*
X130933232Y-128787275D01*
X130909408Y-128794503D01*
X130887452Y-128806238D01*
X130805048Y-128861298D01*
X130785802Y-128877092D01*
X128403435Y-131259459D01*
X128352439Y-131293533D01*
X128292279Y-131305500D01*
X126136510Y-131305500D01*
X126076351Y-131293533D01*
X126035957Y-131266543D01*
X126008967Y-131226149D01*
X125997000Y-131165990D01*
X125997000Y-129184228D01*
X126100719Y-129227189D01*
X126196789Y-129252930D01*
X126328269Y-129270240D01*
X126378000Y-129273500D01*
X128517080Y-129273500D01*
X128566811Y-129270240D01*
X128698291Y-129252930D01*
X128794361Y-129227189D01*
X128916881Y-129176440D01*
X129003019Y-129126708D01*
X129108229Y-129045977D01*
X129145698Y-129013118D01*
X131370463Y-126788353D01*
X131416063Y-126753363D01*
X131445903Y-126741002D01*
X131502889Y-126733500D01*
X143459500Y-126733500D01*
X143509231Y-126730240D01*
X143640711Y-126712930D01*
X143736781Y-126687189D01*
X143859301Y-126636440D01*
X143945439Y-126586708D01*
X144050649Y-126505977D01*
X144120977Y-126435649D01*
X144201708Y-126330439D01*
X144251440Y-126244301D01*
X144302189Y-126121781D01*
X144327930Y-126025711D01*
X144345240Y-125894231D01*
X144348500Y-125844500D01*
X144348500Y-104318000D01*
X144345240Y-104268269D01*
X144327930Y-104136789D01*
X144302189Y-104040719D01*
X144251440Y-103918199D01*
X144201708Y-103832061D01*
X144120977Y-103726851D01*
X144094500Y-103700374D01*
X144094500Y-89154010D01*
X144106467Y-89093851D01*
X144133457Y-89053457D01*
X144173851Y-89026467D01*
X144234010Y-89014500D01*
X147803272Y-89014500D01*
X147760311Y-89118219D01*
%TA.AperFunction,Conductor*%
D19*
G36*
X147760311Y-89118219D02*
G01*
X147734570Y-89214289D01*
X147717260Y-89345769D01*
X147714000Y-89395500D01*
X147714000Y-105842000D01*
X147717260Y-105891731D01*
X147734570Y-106023211D01*
X147760311Y-106119281D01*
X147811060Y-106241801D01*
X147860792Y-106327939D01*
X147941523Y-106433149D01*
X147968000Y-106459626D01*
X147968000Y-128625990D01*
X147956033Y-128686149D01*
X147929043Y-128726543D01*
X147888649Y-128753533D01*
X147828490Y-128765500D01*
X131055210Y-128765500D01*
X131030433Y-128767940D01*
X130933232Y-128787275D01*
X130909408Y-128794503D01*
X130887452Y-128806238D01*
X130805048Y-128861298D01*
X130785802Y-128877092D01*
X128403435Y-131259459D01*
X128352439Y-131293533D01*
X128292279Y-131305500D01*
X126136510Y-131305500D01*
X126076351Y-131293533D01*
X126035957Y-131266543D01*
X126008967Y-131226149D01*
X125997000Y-131165990D01*
X125997000Y-129184228D01*
X126100719Y-129227189D01*
X126196789Y-129252930D01*
X126328269Y-129270240D01*
X126378000Y-129273500D01*
X128517080Y-129273500D01*
X128566811Y-129270240D01*
X128698291Y-129252930D01*
X128794361Y-129227189D01*
X128916881Y-129176440D01*
X129003019Y-129126708D01*
X129108229Y-129045977D01*
X129145698Y-129013118D01*
X131370463Y-126788353D01*
X131416063Y-126753363D01*
X131445903Y-126741002D01*
X131502889Y-126733500D01*
X143459500Y-126733500D01*
X143509231Y-126730240D01*
X143640711Y-126712930D01*
X143736781Y-126687189D01*
X143859301Y-126636440D01*
X143945439Y-126586708D01*
X144050649Y-126505977D01*
X144120977Y-126435649D01*
X144201708Y-126330439D01*
X144251440Y-126244301D01*
X144302189Y-126121781D01*
X144327930Y-126025711D01*
X144345240Y-125894231D01*
X144348500Y-125844500D01*
X144348500Y-104318000D01*
X144345240Y-104268269D01*
X144327930Y-104136789D01*
X144302189Y-104040719D01*
X144251440Y-103918199D01*
X144201708Y-103832061D01*
X144120977Y-103726851D01*
X144094500Y-103700374D01*
X144094500Y-89154010D01*
X144106467Y-89093851D01*
X144133457Y-89053457D01*
X144173851Y-89026467D01*
X144234010Y-89014500D01*
X147803272Y-89014500D01*
X147760311Y-89118219D01*
G37*
%TD.AperFunction*%
%TD*%
D18*
%TO.N,VCC*%
X143557825Y-103951040D02*
X143649451Y-103988993D01*
X143728132Y-104049368D01*
X143788507Y-104128049D01*
X143826460Y-104219675D01*
X143840500Y-104326321D01*
X143840500Y-125836179D01*
X143826460Y-125942825D01*
X143788507Y-126034451D01*
X143728132Y-126113132D01*
X143649451Y-126173507D01*
X143557825Y-126211460D01*
X143451179Y-126225500D01*
X131477920Y-126225500D01*
X131461343Y-126226587D01*
X131329863Y-126243897D01*
X131297840Y-126252477D01*
X131175320Y-126303226D01*
X131146607Y-126319803D01*
X131041397Y-126400534D01*
X131028907Y-126411487D01*
X128792371Y-128648023D01*
X128707031Y-128713507D01*
X128615405Y-128751460D01*
X128508759Y-128765500D01*
X126386321Y-128765500D01*
X126279675Y-128751460D01*
X126188049Y-128713507D01*
X126109368Y-128653132D01*
X126048993Y-128574451D01*
X126011040Y-128482825D01*
X125997000Y-128376179D01*
X125997000Y-126868821D01*
X126011040Y-126762175D01*
X126048993Y-126670549D01*
X126109368Y-126591868D01*
X126188049Y-126531493D01*
X126279675Y-126493540D01*
X126386321Y-126479500D01*
X128517080Y-126479500D01*
X128533657Y-126478413D01*
X128665137Y-126461103D01*
X128697160Y-126452523D01*
X128819680Y-126401774D01*
X128848393Y-126385197D01*
X128953603Y-126304466D01*
X128966093Y-126293513D01*
X131202629Y-124056977D01*
X131287969Y-123991493D01*
X131379595Y-123953540D01*
X131486241Y-123939500D01*
X139649500Y-123939500D01*
X139666077Y-123938413D01*
X139797557Y-123921103D01*
X139829580Y-123912523D01*
X139952100Y-123861774D01*
X139980813Y-123845197D01*
X140086023Y-123764466D01*
X140109466Y-123741023D01*
X140190197Y-123635813D01*
X140206774Y-123607100D01*
X140257523Y-123484580D01*
X140266103Y-123452557D01*
X140283413Y-123321077D01*
X140284500Y-123304500D01*
X140284500Y-118429377D01*
X140321565Y-118339894D01*
X140353500Y-118179346D01*
X140353500Y-118015654D01*
X140321565Y-117855106D01*
X140284500Y-117765623D01*
X140284500Y-117159377D01*
X140321565Y-117069894D01*
X140353500Y-116909346D01*
X140353500Y-116745654D01*
X140321565Y-116585106D01*
X140284500Y-116495623D01*
X140284500Y-104326321D01*
X140298540Y-104219675D01*
X140336493Y-104128049D01*
X140396868Y-104049368D01*
X140475549Y-103988993D01*
X140567175Y-103951040D01*
X140673821Y-103937000D01*
X143451179Y-103937000D01*
X143557825Y-103951040D01*
%TA.AperFunction,Conductor*%
D19*
G36*
X143557825Y-103951040D02*
G01*
X143649451Y-103988993D01*
X143728132Y-104049368D01*
X143788507Y-104128049D01*
X143826460Y-104219675D01*
X143840500Y-104326321D01*
X143840500Y-125836179D01*
X143826460Y-125942825D01*
X143788507Y-126034451D01*
X143728132Y-126113132D01*
X143649451Y-126173507D01*
X143557825Y-126211460D01*
X143451179Y-126225500D01*
X131477920Y-126225500D01*
X131461343Y-126226587D01*
X131329863Y-126243897D01*
X131297840Y-126252477D01*
X131175320Y-126303226D01*
X131146607Y-126319803D01*
X131041397Y-126400534D01*
X131028907Y-126411487D01*
X128792371Y-128648023D01*
X128707031Y-128713507D01*
X128615405Y-128751460D01*
X128508759Y-128765500D01*
X126386321Y-128765500D01*
X126279675Y-128751460D01*
X126188049Y-128713507D01*
X126109368Y-128653132D01*
X126048993Y-128574451D01*
X126011040Y-128482825D01*
X125997000Y-128376179D01*
X125997000Y-126868821D01*
X126011040Y-126762175D01*
X126048993Y-126670549D01*
X126109368Y-126591868D01*
X126188049Y-126531493D01*
X126279675Y-126493540D01*
X126386321Y-126479500D01*
X128517080Y-126479500D01*
X128533657Y-126478413D01*
X128665137Y-126461103D01*
X128697160Y-126452523D01*
X128819680Y-126401774D01*
X128848393Y-126385197D01*
X128953603Y-126304466D01*
X128966093Y-126293513D01*
X131202629Y-124056977D01*
X131287969Y-123991493D01*
X131379595Y-123953540D01*
X131486241Y-123939500D01*
X139649500Y-123939500D01*
X139666077Y-123938413D01*
X139797557Y-123921103D01*
X139829580Y-123912523D01*
X139952100Y-123861774D01*
X139980813Y-123845197D01*
X140086023Y-123764466D01*
X140109466Y-123741023D01*
X140190197Y-123635813D01*
X140206774Y-123607100D01*
X140257523Y-123484580D01*
X140266103Y-123452557D01*
X140283413Y-123321077D01*
X140284500Y-123304500D01*
X140284500Y-118429377D01*
X140321565Y-118339894D01*
X140353500Y-118179346D01*
X140353500Y-118015654D01*
X140321565Y-117855106D01*
X140284500Y-117765623D01*
X140284500Y-117159377D01*
X140321565Y-117069894D01*
X140353500Y-116909346D01*
X140353500Y-116745654D01*
X140321565Y-116585106D01*
X140284500Y-116495623D01*
X140284500Y-104326321D01*
X140298540Y-104219675D01*
X140336493Y-104128049D01*
X140396868Y-104049368D01*
X140475549Y-103988993D01*
X140567175Y-103951040D01*
X140673821Y-103937000D01*
X143451179Y-103937000D01*
X143557825Y-103951040D01*
G37*
%TD.AperFunction*%
%TD*%
D18*
%TO.N,VCC*%
X151495325Y-89028540D02*
X151586951Y-89066493D01*
X151665632Y-89126868D01*
X151726007Y-89205549D01*
X151763960Y-89297175D01*
X151778000Y-89403821D01*
X151778000Y-105833679D01*
X151763960Y-105940325D01*
X151726007Y-106031951D01*
X151665632Y-106110632D01*
X151586951Y-106171007D01*
X151495325Y-106208960D01*
X151388679Y-106223000D01*
X148611321Y-106223000D01*
X148504675Y-106208960D01*
X148413049Y-106171007D01*
X148334368Y-106110632D01*
X148273993Y-106031951D01*
X148236040Y-105940325D01*
X148222000Y-105833679D01*
X148222000Y-89403821D01*
X148236040Y-89297175D01*
X148273993Y-89205549D01*
X148334368Y-89126868D01*
X148413049Y-89066493D01*
X148504675Y-89028540D01*
X148611321Y-89014500D01*
X151388679Y-89014500D01*
X151495325Y-89028540D01*
%TA.AperFunction,Conductor*%
D19*
G36*
X151495325Y-89028540D02*
G01*
X151586951Y-89066493D01*
X151665632Y-89126868D01*
X151726007Y-89205549D01*
X151763960Y-89297175D01*
X151778000Y-89403821D01*
X151778000Y-105833679D01*
X151763960Y-105940325D01*
X151726007Y-106031951D01*
X151665632Y-106110632D01*
X151586951Y-106171007D01*
X151495325Y-106208960D01*
X151388679Y-106223000D01*
X148611321Y-106223000D01*
X148504675Y-106208960D01*
X148413049Y-106171007D01*
X148334368Y-106110632D01*
X148273993Y-106031951D01*
X148236040Y-105940325D01*
X148222000Y-105833679D01*
X148222000Y-89403821D01*
X148236040Y-89297175D01*
X148273993Y-89205549D01*
X148334368Y-89126868D01*
X148413049Y-89066493D01*
X148504675Y-89028540D01*
X148611321Y-89014500D01*
X151388679Y-89014500D01*
X151495325Y-89028540D01*
G37*
%TD.AperFunction*%
%TD*%
D18*
%TO.N,+5VD*%
X139747825Y-89028540D02*
X139839451Y-89066493D01*
X139918132Y-89126868D01*
X139978507Y-89205549D01*
X140016460Y-89297175D01*
X140030500Y-89403821D01*
X140030500Y-103700374D01*
X140004023Y-103726851D01*
X139923292Y-103832061D01*
X139873560Y-103918199D01*
X139822811Y-104040719D01*
X139797070Y-104136789D01*
X139779760Y-104268269D01*
X139776500Y-104318000D01*
X139776500Y-118579582D01*
X139747825Y-118591460D01*
X139641179Y-118605500D01*
X136863821Y-118605500D01*
X136757175Y-118591460D01*
X136665549Y-118553507D01*
X136586868Y-118493132D01*
X136526493Y-118414451D01*
X136488540Y-118322825D01*
X136474500Y-118216179D01*
X136474500Y-89403821D01*
X136488540Y-89297175D01*
X136526493Y-89205549D01*
X136586868Y-89126868D01*
X136665549Y-89066493D01*
X136757175Y-89028540D01*
X136863821Y-89014500D01*
X139641179Y-89014500D01*
X139747825Y-89028540D01*
%TA.AperFunction,Conductor*%
D19*
G36*
X139747825Y-89028540D02*
G01*
X139839451Y-89066493D01*
X139918132Y-89126868D01*
X139978507Y-89205549D01*
X140016460Y-89297175D01*
X140030500Y-89403821D01*
X140030500Y-103700374D01*
X140004023Y-103726851D01*
X139923292Y-103832061D01*
X139873560Y-103918199D01*
X139822811Y-104040719D01*
X139797070Y-104136789D01*
X139779760Y-104268269D01*
X139776500Y-104318000D01*
X139776500Y-118579582D01*
X139747825Y-118591460D01*
X139641179Y-118605500D01*
X136863821Y-118605500D01*
X136757175Y-118591460D01*
X136665549Y-118553507D01*
X136586868Y-118493132D01*
X136526493Y-118414451D01*
X136488540Y-118322825D01*
X136474500Y-118216179D01*
X136474500Y-89403821D01*
X136488540Y-89297175D01*
X136526493Y-89205549D01*
X136586868Y-89126868D01*
X136665549Y-89066493D01*
X136757175Y-89028540D01*
X136863821Y-89014500D01*
X139641179Y-89014500D01*
X139747825Y-89028540D01*
G37*
%TD.AperFunction*%
%TD*%
M02*
