M48
; DRILL file {KiCad (5.1.9-0-10_14)} date Sunday, March 07, 2021 at 01:53:50 PM
; FORMAT={-:-/ absolute / inch / decimal}
; #@! TF.CreationDate,2021-03-07T13:53:50+01:00
; #@! TF.GenerationSoftware,Kicad,Pcbnew,(5.1.9-0-10_14)
FMAT,2
INCH
T1C0.0157
T2C0.0394
T3C0.0669
T4C0.1260
%
G90
G05
T1
X5.393Y-4.5995
X5.393Y-4.6495
X5.443Y-4.5995
X5.443Y-4.6495
X5.493Y-4.5995
X5.493Y-4.6495
X5.543Y-4.112
X5.543Y-4.162
X5.593Y-4.112
X5.593Y-4.162
X5.643Y-4.112
X5.643Y-4.162
X5.8555Y-4.112
X5.8555Y-4.162
X5.9055Y-4.112
X5.9055Y-4.162
X5.9555Y-4.112
X5.9555Y-4.162
T2
X5.0079Y-4.7244
X5.0079Y-4.8244
X5.0079Y-4.9244
X5.0079Y-5.0244
X5.0079Y-5.1244
X5.0079Y-5.2244
X5.0079Y-5.3244
X5.0079Y-5.4244
X6.1811Y-3.4827
X6.1811Y-3.5827
X6.2205Y-2.1146
X6.2205Y-2.2146
X6.2811Y-3.4827
X6.2811Y-3.5827
X6.3205Y-2.1146
X6.3205Y-2.2146
X6.3811Y-3.4827
X6.3811Y-3.5827
X6.4205Y-2.1146
X6.4205Y-2.2146
X6.4811Y-3.4827
X6.4811Y-3.5827
X6.5205Y-2.1146
X6.5205Y-2.2146
X6.5811Y-3.4827
X6.5811Y-3.5827
X6.6811Y-3.4827
X6.6811Y-3.5827
X6.8031Y-4.5244
X6.8031Y-4.6244
X6.8031Y-4.7244
X6.8031Y-4.8244
X6.8031Y-4.9244
X6.8031Y-5.0244
X6.8031Y-5.1244
X6.8031Y-5.2244
X6.8031Y-5.3244
X6.8031Y-5.4244
T3
X5.4378Y-3.5827
X5.5937Y-3.5827
X5.7496Y-3.5827
X5.9055Y-3.5827
T4
X5.0787Y-2.126
X6.7323Y-2.126
T0
M30
