%TF.GenerationSoftware,KiCad,Pcbnew,(5.1.9-0-10_14)*%
%TF.CreationDate,2021-03-07T13:53:49+01:00*%
%TF.ProjectId,ADC Piggy Board,41444320-5069-4676-9779-20426f617264,rev?*%
%TF.SameCoordinates,Original*%
%TF.FileFunction,Profile,NP*%
%FSLAX46Y46*%
G04 Gerber Fmt 4.6, Leading zero omitted, Abs format (unit mm)*
G04 Created by KiCad (PCBNEW (5.1.9-0-10_14)) date 2021-03-07 13:53:49*
%MOMM*%
%LPD*%
G01*
G04 APERTURE LIST*
%TA.AperFunction,Profile*%
%ADD10C,0.050000*%
%TD*%
G04 APERTURE END LIST*
D10*
X125000000Y-62000000D02*
X125000000Y-51000000D01*
X134500000Y-62500000D02*
X125500000Y-62500000D01*
X125500000Y-85000000D02*
X134500000Y-85000000D01*
X125000000Y-85500000D02*
G75*
G02*
X125500000Y-85000000I500000J0D01*
G01*
X135000000Y-84500000D02*
G75*
G02*
X134500000Y-85000000I-500000J0D01*
G01*
X125500000Y-62500000D02*
G75*
G02*
X125000000Y-62000000I0J500000D01*
G01*
X134500000Y-62500000D02*
G75*
G02*
X135000000Y-63000000I0J-500000D01*
G01*
X135000000Y-63000000D02*
X135000000Y-84500000D01*
X174000000Y-50000000D02*
G75*
G02*
X175000000Y-51000000I0J-1000000D01*
G01*
X125000000Y-51000000D02*
G75*
G02*
X126000000Y-50000000I1000000J0D01*
G01*
X175000000Y-139500000D02*
G75*
G02*
X174500000Y-140000000I-500000J0D01*
G01*
X125500000Y-140000000D02*
G75*
G02*
X125000000Y-139500000I0J500000D01*
G01*
X171750000Y-140000000D02*
G75*
G02*
X171250000Y-139500000I0J500000D01*
G01*
X169500000Y-137500000D02*
G75*
G02*
X169000000Y-137000000I0J500000D01*
G01*
X128750000Y-139500000D02*
G75*
G02*
X128250000Y-140000000I-500000J0D01*
G01*
X131000000Y-137000000D02*
G75*
G02*
X130500000Y-137500000I-500000J0D01*
G01*
X168500000Y-130000000D02*
G75*
G02*
X169000000Y-130500000I0J-500000D01*
G01*
X131000000Y-130500000D02*
G75*
G02*
X131500000Y-130000000I500000J0D01*
G01*
X128750000Y-138000000D02*
G75*
G02*
X129250000Y-137500000I500000J0D01*
G01*
X170750000Y-137500000D02*
G75*
G02*
X171250000Y-138000000I0J-500000D01*
G01*
X130500000Y-137500000D02*
X129250000Y-137500000D01*
X131000000Y-130500000D02*
X131000000Y-137000000D01*
X169500000Y-137500000D02*
X170750000Y-137500000D01*
X169000000Y-130500000D02*
X169000000Y-137000000D01*
X128750000Y-138000000D02*
X128750000Y-139500000D01*
X168500000Y-130000000D02*
X131500000Y-130000000D01*
X171250000Y-139500000D02*
X171250000Y-138000000D01*
X174500000Y-140000000D02*
X171750000Y-140000000D01*
X125500000Y-140000000D02*
X128250000Y-140000000D01*
X174000000Y-50000000D02*
X126000000Y-50000000D01*
X175000000Y-139500000D02*
X175000000Y-51000000D01*
X125000000Y-85500000D02*
X125000000Y-139500000D01*
M02*
